<?xml version="1.0" encoding="utf-8" ?>
<svg baseProfile="full" height="150.0mm" version="1.1" viewBox="0 0 450.0 150.0" width="450.0mm" xmlns="http://www.w3.org/2000/svg" xmlns:ev="http://www.w3.org/2001/xml-events" xmlns:xlink="http://www.w3.org/1999/xlink"><defs /><rect fill="#dddddd" height="150.0" width="450.0" x="0" y="0" /><text fill="blue" font-family="serif" font-size="8.819444444444443" font-weight="bold" text-anchor="middle" x="90.0" y="23.086805555555554"> [PREAMP] </text><line stroke="#555555" stroke-width="2.0" x1="20.0" x2="61.54166666666667" y1="20.0" y2="20.0" /><line stroke="#555555" stroke-width="2.0" x1="118.45833333333333" x2="160.0" y1="20.0" y2="20.0" /><line stroke="#555555" stroke-width="2.0" x1="20.0" x2="160.0" y1="120.0" y2="120.0" /><line stroke="#555555" stroke-width="2.0" x1="20.0" x2="20.0" y1="20.0" y2="120.0" /><line stroke="#555555" stroke-width="2.0" x1="160.0" x2="160.0" y1="20.0" y2="120.0" /><circle cx="40.0" cy="60.0" fill="#333333" r="6.35" stroke="black" stroke-width="1" /><circle cx="40.0" cy="60.0" fill="black" r="3.175" /><text fill="black" font-family="sans-serif" font-size="12" font-weight="normal" text-anchor="middle" x="40.0" y="48.65">INPUT</text><text fill="black" font-family="sans-serif" font-size="4.0" font-weight="bold" text-anchor="middle" x="120.0" y="101.4">EQ</text><line stroke="black" stroke-dasharray="2,2" stroke-width="1.0" x1="80.0" x2="115.6" y1="100.0" y2="100.0" /><line stroke="black" stroke-dasharray="2,2" stroke-width="1.0" x1="124.4" x2="160.0" y1="100.0" y2="100.0" /><circle cx="100.0" cy="60.0" fill="none" r="15.0" stroke="black" stroke-width="1" /><line stroke="black" stroke-width="2" x1="100.0" x2="100.0" y1="60.0" y2="47.0" /><text fill="#444444" font-family="sans-serif" font-size="10.0" font-weight="normal" text-anchor="middle" x="100.0" y="90.0">BASS</text><circle cx="140.0" cy="60.0" fill="none" r="15.0" stroke="black" stroke-width="1" /><line stroke="black" stroke-width="2" x1="140.0" x2="140.0" y1="60.0" y2="47.0" /><text fill="#444444" font-family="sans-serif" font-size="10.0" font-weight="normal" text-anchor="middle" x="140.0" y="40.0">TREBLE</text><text fill="black" font-family="sans-serif" font-size="4.0" font-weight="bold" text-anchor="middle" x="300.0" y="26.0">MASTER</text><line stroke="red" stroke-dasharray="5,5" stroke-width="1.0" x1="250.0" x2="350.0" y1="20.0" y2="20.0" /><line stroke="red" stroke-dasharray="5,5" stroke-width="1.0" x1="250.0" x2="350.0" y1="120.0" y2="120.0" /><line stroke="red" stroke-dasharray="5,5" stroke-width="1.0" x1="250.0" x2="250.0" y1="20.0" y2="120.0" /><line stroke="red" stroke-dasharray="5,5" stroke-width="1.0" x1="350.0" x2="350.0" y1="20.0" y2="120.0" /><circle cx="300.0" cy="60.0" fill="none" r="15.0" stroke="black" stroke-width="1" /><line stroke="black" stroke-width="2" x1="300.0" x2="300.0" y1="60.0" y2="47.0" /><text fill="black" font-family="sans-serif" font-size="14.0" font-weight="bold" text-anchor="middle" x="300.0" y="90.0">VOLUME</text></svg>