<?xml version="1.0" encoding="utf-8" ?>
<svg baseProfile="full" height="150.0mm" version="1.1" viewBox="0 0 450.0 150.0" width="450.0mm" xmlns="http://www.w3.org/2000/svg" xmlns:ev="http://www.w3.org/2001/xml-events" xmlns:xlink="http://www.w3.org/1999/xlink"><defs /><rect fill="#dddddd" height="150.0" width="450.0" x="0" y="0" /><text fill="blue" font-family="serif" font-size="8.819444444444443" font-weight="bold" text-anchor="middle" x="90.0" y="23.086805555555554"> [PREAMP] </text><line stroke="#555555" stroke-width="2.0" x1="20.0" x2="61.54166666666667" y1="20.0" y2="20.0" /><line stroke="#555555" stroke-width="2.0" x1="118.45833333333333" x2="160.0" y1="20.0" y2="20.0" /><line stroke="#555555" stroke-width="2.0" x1="20.0" x2="160.0" y1="120.0" y2="120.0" /><line stroke="#555555" stroke-width="2.0" x1="20.0" x2="20.0" y1="20.0" y2="120.0" /><line stroke="#555555" stroke-width="2.0" x1="160.0" x2="160.0" y1="20.0" y2="120.0" /><circle cx="40.0" cy="60.0" fill="none" r="5.0" stroke="gray" stroke-opacity="0.5" stroke-width="0.5" /><line stroke="gray" stroke-opacity="0.5" stroke-width="0.5" x1="32.0" x2="48.0" y1="60.0" y2="60.0" /><line stroke="gray" stroke-opacity="0.5" stroke-width="0.5" x1="40.0" x2="40.0" y1="52.0" y2="68.0" /><circle cx="40.0" cy="60.0" fill="#333333" opacity="0.5" r="6.35" stroke="black" stroke-width="1" /><circle cx="40.0" cy="60.0" fill="black" opacity="0.5" r="3.175" /><text fill="black" font-family="sans-serif" font-size="12" font-weight="normal" text-anchor="middle" x="40.0" y="48.65">INPUT</text><text fill="black" font-family="sans-serif" font-size="4.0" font-weight="bold" text-anchor="middle" x="120.0" y="101.4">EQ</text><line stroke="black" stroke-dasharray="2,2" stroke-width="1.0" x1="80.0" x2="115.6" y1="100.0" y2="100.0" /><line stroke="black" stroke-dasharray="2,2" stroke-width="1.0" x1="124.4" x2="160.0" y1="100.0" y2="100.0" /><circle cx="100.0" cy="60.0" fill="none" r="3.0" stroke="gray" stroke-opacity="0.5" stroke-width="0.5" /><line stroke="gray" stroke-opacity="0.5" stroke-width="0.5" x1="94.0" x2="106.0" y1="60.0" y2="60.0" /><line stroke="gray" stroke-opacity="0.5" stroke-width="0.5" x1="100.0" x2="100.0" y1="54.0" y2="66.0" /><line stroke="black" stroke-width="1.5" x1="90.45405845398162" x2="88.33273811042197" y1="69.5459415460184" y2="71.66726188957803" /><line stroke="black" stroke-width="1" x1="87.16073703001543" x2="85.7341522555727" y1="64.1717294240618" y2="64.63525491562422" /><line stroke="black" stroke-width="1.5" x1="86.66620740196564" x2="83.70314238018022" y1="57.88813472195689" y2="57.41883132683619" /><line stroke="black" stroke-width="1" x1="89.0782705759382" x2="87.86474508437578" y1="52.06489909405161" y2="51.1832212156129" /><line stroke="black" stroke-width="1.5" x1="93.87112825351612" x2="92.50915675429748" y1="47.97141192345703" y2="45.29839235089193" /><line stroke="black" stroke-width="1" x1="100.0" x2="100.0" y1="46.5" y2="45.0" /><line stroke="black" stroke-width="1.5" x1="106.12887174648388" x2="107.49084324570252" y1="47.97141192345703" y2="45.29839235089193" /><line stroke="black" stroke-width="1" x1="110.9217294240618" x2="112.13525491562422" y1="52.06489909405161" y2="51.1832212156129" /><line stroke="black" stroke-width="1.5" x1="113.33379259803436" x2="116.29685761981978" y1="57.88813472195688" y2="57.418831326836184" /><line stroke="black" stroke-width="1" x1="112.83926296998457" x2="114.2658477444273" y1="64.17172942406178" y2="64.6352549156242" /><line stroke="black" stroke-width="1.5" x1="109.5459415460184" x2="111.66726188957804" y1="69.54594154601838" y2="71.66726188957803" /><circle cx="100.0" cy="60.0" fill="white" opacity="0.5" r="10.0" stroke="black" stroke-width="1" /><line opacity="0.5" stroke="black" stroke-width="2" x1="100.0" x2="100.0" y1="60.0" y2="52.0" /><text fill="#444444" font-family="sans-serif" font-size="10.0" font-weight="normal" text-anchor="middle" x="100.0" y="75.0">BASS</text><circle cx="140.0" cy="60.0" fill="none" r="3.0" stroke="gray" stroke-opacity="0.5" stroke-width="0.5" /><line stroke="gray" stroke-opacity="0.5" stroke-width="0.5" x1="134.0" x2="146.0" y1="60.0" y2="60.0" /><line stroke="gray" stroke-opacity="0.5" stroke-width="0.5" x1="140.0" x2="140.0" y1="54.0" y2="66.0" /><circle cx="129.74695167279506" cy="70.25304832720494" fill="black" r="1.0" /><circle cx="126.92297290094164" cy="64.24898367265553" fill="black" r="0.25" /><circle cx="126.41928531681685" cy="57.84902610569683" fill="black" r="0.25" /><circle cx="128.87601632734447" cy="51.917952780978496" fill="black" r="0.25" /><circle cx="133.75763062858124" cy="47.748660292409944" fill="black" r="0.25" /><circle cx="140.0" cy="45.5" fill="black" r="1.0" /><circle cx="146.24236937141876" cy="47.74866029240994" fill="black" r="0.25" /><circle cx="151.12398367265553" cy="51.917952780978496" fill="black" r="0.25" /><circle cx="153.58071468318315" cy="57.84902610569682" fill="black" r="0.25" /><circle cx="153.07702709905837" cy="64.24898367265553" fill="black" r="0.25" /><circle cx="150.25304832720494" cy="70.25304832720494" fill="black" r="1.0" /><circle cx="140.0" cy="60.0" fill="white" opacity="0.5" r="10.0" stroke="black" stroke-width="1" /><line opacity="0.5" stroke="black" stroke-width="2" x1="140.0" x2="140.0" y1="60.0" y2="52.0" /><text fill="#444444" font-family="sans-serif" font-size="10.0" font-weight="normal" text-anchor="middle" x="140.0" y="37.5">TREBLE</text><rect fill="none" height="12.0" stroke="gray" stroke-opacity="0.5" stroke-width="0.5" width="6.0" x="177.0" y="54.0" /><line stroke="gray" stroke-opacity="0.5" stroke-width="0.5" x1="174.0" x2="186.0" y1="60.0" y2="60.0" /><line stroke="gray" stroke-opacity="0.5" stroke-width="0.5" x1="180.0" x2="180.0" y1="51.0" y2="69.0" /><text fill="green" font-family="sans-serif" font-size="8.0" font-weight="normal" text-anchor="middle" x="180.0" y="45.0">ON</text><text fill="black" font-family="sans-serif" font-size="12" font-weight="normal" text-anchor="middle" x="180.0" y="78.0">OFF</text><rect fill="#cccccc" height="20.0" opacity="0.5" stroke="black" width="10.0" x="175.0" y="50.0" /><circle cx="180.0" cy="60.0" fill="black" opacity="0.5" r="3.0" /><text fill="black" font-family="sans-serif" font-size="12" font-weight="normal" text-anchor="middle" x="180.0" y="85.0">BRIGHT</text><text fill="black" font-family="sans-serif" font-size="4.0" font-weight="bold" text-anchor="middle" x="325.0" y="26.0">MASTER</text><line stroke="red" stroke-dasharray="5,5" stroke-width="1.0" x1="250.0" x2="400.0" y1="20.0" y2="20.0" /><line stroke="red" stroke-dasharray="5,5" stroke-width="1.0" x1="250.0" x2="400.0" y1="120.0" y2="120.0" /><line stroke="red" stroke-dasharray="5,5" stroke-width="1.0" x1="250.0" x2="250.0" y1="20.0" y2="120.0" /><line stroke="red" stroke-dasharray="5,5" stroke-width="1.0" x1="400.0" x2="400.0" y1="20.0" y2="120.0" /><circle cx="250.0" cy="60.0" fill="none" r="4.0" stroke="gray" stroke-opacity="0.5" stroke-width="0.5" /><line stroke="gray" stroke-opacity="0.5" stroke-width="0.5" x1="243.0" x2="257.0" y1="60.0" y2="60.0" /><line stroke="gray" stroke-opacity="0.5" stroke-width="0.5" x1="250.0" x2="250.0" y1="53.0" y2="67.0" /><circle cx="250.0" cy="60.0" fill="none" r="17.5" stroke="black" stroke-width="1.0" /><line stroke="black" stroke-width="1.5" x1="236.91852454804888" x2="234.0900974233027" y1="73.08147545195114" y2="75.90990257669732" /><line stroke="black" stroke-width="1.5" x1="232.40545444853967" x2="228.60122838335906" y1="65.71681439593652" y2="66.95288237343632" /><line stroke="black" stroke-width="1.5" x1="231.72776569898994" x2="227.7770123366094" y1="57.10596239675573" y2="56.48022453659481" /><line stroke="black" stroke-width="1.5" x1="235.03318560406348" x2="231.79711762656368" y1="49.12597283258925" y2="46.774831823419355" /><line stroke="black" stroke-width="1.5" x1="241.60117575481837" x2="239.78521375586018" y1="43.5163793025152" y2="39.952353205761725" /><line stroke="black" stroke-width="1.5" x1="250.0" x2="250.0" y1="41.5" y2="37.5" /><line stroke="black" stroke-width="1.5" x1="258.39882424518163" x2="260.2147862441398" y1="43.51637930251519" y2="39.952353205761725" /><line stroke="black" stroke-width="1.5" x1="264.9668143959365" x2="268.2028823734363" y1="49.12597283258924" y2="46.77483182341935" /><line stroke="black" stroke-width="1.5" x1="268.27223430101003" x2="272.2229876633906" y1="57.10596239675572" y2="56.4802245365948" /><line stroke="black" stroke-width="1.5" x1="267.5945455514603" x2="271.39877161664094" y1="65.71681439593652" y2="66.95288237343631" /><line stroke="black" stroke-width="1.5" x1="263.0814754519511" x2="265.90990257669733" y1="73.08147545195112" y2="75.90990257669732" /><circle cx="250.0" cy="60.0" fill="white" opacity="0.5" r="12.5" stroke="black" stroke-width="1" /><line opacity="0.5" stroke="black" stroke-width="2" x1="250.0" x2="250.0" y1="60.0" y2="49.5" /><text fill="black" font-family="sans-serif" font-size="14.0" font-weight="bold" text-anchor="middle" x="250.0" y="91.5">VOLUME</text><circle cx="340.0" cy="60.0" fill="none" r="2.5" stroke="gray" stroke-opacity="0.5" stroke-width="0.5" /><line stroke="gray" stroke-opacity="0.5" stroke-width="0.5" x1="334.5" x2="345.5" y1="60.0" y2="60.0" /><line stroke="gray" stroke-opacity="0.5" stroke-width="0.5" x1="340.0" x2="340.0" y1="54.5" y2="65.5" /><line stroke="black" stroke-width="1.5" x1="347.77817459305203" x2="350.60660171779824" y1="67.77817459305201" y2="70.60660171779821" /><text fill="red" font-family="sans-serif" font-size="4.0" font-weight="normal" text-anchor="middle" x="352.72792206135784" y="74.22792206135784">4</text><line stroke="black" stroke-width="1.5" x1="340.0" x2="340.0" y1="71.0" y2="75.0" /><text fill="black" font-family="sans-serif" font-size="3.0" font-weight="normal" text-anchor="middle" x="340.0" y="79.5">8</text><line stroke="black" stroke-width="1.5" x1="332.22182540694797" x2="329.39339828220176" y1="67.77817459305201" y2="70.60660171779821" /><text fill="black" font-family="sans-serif" font-size="3.0" font-weight="normal" text-anchor="middle" x="327.27207793864216" y="74.22792206135784">16</text><circle cx="340.0" cy="60.0" fill="white" opacity="0.5" r="10.0" stroke="black" stroke-width="1" /><line opacity="0.5" stroke="black" stroke-width="2" x1="340.0" x2="340.0" y1="60.0" y2="52.0" /><text fill="black" font-family="sans-serif" font-size="12" font-weight="normal" text-anchor="middle" x="340.0" y="89.0">IMPEDANCE</text><circle cx="380.0" cy="60.0" fill="none" r="6.0" stroke="gray" stroke-opacity="0.5" stroke-width="0.5" /><line stroke="gray" stroke-opacity="0.5" stroke-width="0.5" x1="371.0" x2="389.0" y1="60.0" y2="60.0" /><line stroke="gray" stroke-opacity="0.5" stroke-width="0.5" x1="380.0" x2="380.0" y1="51.0" y2="69.0" /><circle cx="380.0" cy="60.0" fill="#eeeeee" opacity="0.5" r="6.0" stroke="black" stroke-width="1" /><line opacity="0.5" stroke="black" stroke-width="1" x1="375.8" x2="384.2" y1="55.8" y2="64.2" /><line opacity="0.5" stroke="black" stroke-width="1" x1="384.2" x2="375.8" y1="55.8" y2="64.2" /><text fill="black" font-family="sans-serif" font-size="12" font-weight="normal" text-anchor="middle" x="380.0" y="76.0">FUSE</text><rect fill="none" height="20.0" stroke="gray" stroke-opacity="0.5" stroke-width="0.5" width="40.0" x="290.0" y="90.0" /><line stroke="gray" stroke-opacity="0.5" stroke-width="0.5" x1="287.0" x2="333.0" y1="100.0" y2="100.0" /><line stroke="gray" stroke-opacity="0.5" stroke-width="0.5" x1="310.0" x2="310.0" y1="87.0" y2="113.0" /><rect fill="#eeeeee" height="20.0" opacity="0.5" stroke="black" stroke-width="1" width="40.0" x="290.0" y="90.0" /><line opacity="0.5" stroke="black" stroke-width="1" x1="290.0" x2="330.0" y1="90.0" y2="110.0" /><line opacity="0.5" stroke="black" stroke-width="1" x1="330.0" x2="290.0" y1="90.0" y2="110.0" /><text fill="blue" font-family="sans-serif" font-size="12" font-weight="normal" text-anchor="middle" x="310.0" y="80.0">DISPLAY</text><circle cx="315.0" cy="120.0" fill="none" r="2.0" stroke="gray" stroke-opacity="0.5" stroke-width="0.5" /><line stroke="gray" stroke-opacity="0.5" stroke-width="0.5" x1="310.0" x2="320.0" y1="120.0" y2="120.0" /><line stroke="gray" stroke-opacity="0.5" stroke-width="0.5" x1="315.0" x2="315.0" y1="115.0" y2="125.0" /><circle cx="315.0" cy="120.0" fill="#eeeeee" opacity="0.5" r="2.0" stroke="black" stroke-width="1" /><line opacity="0.5" stroke="black" stroke-width="1" x1="313.6" x2="316.4" y1="118.6" y2="121.4" /><line opacity="0.5" stroke="black" stroke-width="1" x1="316.4" x2="313.6" y1="118.6" y2="121.4" /></svg>