<?xml version="1.0" encoding="utf-8" ?>
<svg baseProfile="full" height="150.0mm" version="1.1" viewBox="0 0 400.0 150.0" width="400.0mm" xmlns="http://www.w3.org/2000/svg" xmlns:ev="http://www.w3.org/2001/xml-events" xmlns:xlink="http://www.w3.org/1999/xlink"><defs /><rect fill="#dddddd" height="150.0" width="400.0" x="0" y="0" /><text fill="black" font-family="sans-serif" font-size="4.0" font-weight="bold" text-anchor="middle" x="90.0" y="15.0">PREAMP</text><line stroke="#555555" stroke-width="2.0" x1="20.0" x2="160.0" y1="20.0" y2="20.0" /><line stroke="#555555" stroke-width="2.0" x1="20.0" x2="160.0" y1="120.0" y2="120.0" /><line stroke="#555555" stroke-width="2.0" x1="20.0" x2="20.0" y1="20.0" y2="120.0" /><line stroke="#555555" stroke-width="2.0" x1="160.0" x2="160.0" y1="20.0" y2="120.0" /><circle cx="40.0" cy="60.0" fill="none" r="5.0" stroke="gray" stroke-opacity="0.5" stroke-width="0.5" /><line stroke="gray" stroke-opacity="0.5" stroke-width="0.5" x1="32.0" x2="48.0" y1="60.0" y2="60.0" /><line stroke="gray" stroke-opacity="0.5" stroke-width="0.5" x1="40.0" x2="40.0" y1="52.0" y2="68.0" /><circle cx="40.0" cy="60.0" fill="#333333" opacity="0.5" r="10.0" stroke="black" stroke-width="1" /><circle cx="40.0" cy="60.0" fill="black" opacity="0.5" r="5.0" /><text fill="black" font-family="sans-serif" font-size="12" font-weight="normal" text-anchor="middle" x="40.0" y="85.0">INPUT</text><text fill="black" font-family="sans-serif" font-size="4.0" font-weight="bold" text-anchor="middle" x="120.0" y="15.0">EQ</text><line stroke="black" stroke-dasharray="2,2" stroke-width="1.0" x1="80.0" x2="160.0" y1="100.0" y2="100.0" /><circle cx="100.0" cy="60.0" fill="none" r="3.0" stroke="gray" stroke-opacity="0.5" stroke-width="0.5" /><line stroke="gray" stroke-opacity="0.5" stroke-width="0.5" x1="94.0" x2="106.0" y1="60.0" y2="60.0" /><line stroke="gray" stroke-opacity="0.5" stroke-width="0.5" x1="100.0" x2="100.0" y1="54.0" y2="66.0" /><circle cx="100.0" cy="60.0" fill="white" opacity="0.5" r="10.0" stroke="black" stroke-width="1" /><line opacity="0.5" stroke="black" stroke-width="2" x1="100.0" x2="100.0" y1="60.0" y2="52.0" /><text fill="black" font-family="sans-serif" font-size="12" font-weight="normal" text-anchor="middle" x="100.0" y="80.5">BASS</text><circle cx="140.0" cy="60.0" fill="none" r="3.0" stroke="gray" stroke-opacity="0.5" stroke-width="0.5" /><line stroke="gray" stroke-opacity="0.5" stroke-width="0.5" x1="134.0" x2="146.0" y1="60.0" y2="60.0" /><line stroke="gray" stroke-opacity="0.5" stroke-width="0.5" x1="140.0" x2="140.0" y1="54.0" y2="66.0" /><circle cx="140.0" cy="60.0" fill="white" opacity="0.5" r="10.0" stroke="black" stroke-width="1" /><line opacity="0.5" stroke="black" stroke-width="2" x1="140.0" x2="140.0" y1="60.0" y2="52.0" /><text fill="black" font-family="sans-serif" font-size="12" font-weight="normal" text-anchor="middle" x="140.0" y="80.5">TREBLE</text><text fill="black" font-family="sans-serif" font-size="4.0" font-weight="bold" text-anchor="middle" x="300.0" y="15.0">MASTER</text><line stroke="red" stroke-dasharray="5,5" stroke-width="1.0" x1="250.0" x2="350.0" y1="20.0" y2="20.0" /><line stroke="red" stroke-dasharray="5,5" stroke-width="1.0" x1="250.0" x2="350.0" y1="120.0" y2="120.0" /><line stroke="red" stroke-dasharray="5,5" stroke-width="1.0" x1="250.0" x2="250.0" y1="20.0" y2="120.0" /><line stroke="red" stroke-dasharray="5,5" stroke-width="1.0" x1="350.0" x2="350.0" y1="20.0" y2="120.0" /><circle cx="300.0" cy="60.0" fill="none" r="3.0" stroke="gray" stroke-opacity="0.5" stroke-width="0.5" /><line stroke="gray" stroke-opacity="0.5" stroke-width="0.5" x1="294.0" x2="306.0" y1="60.0" y2="60.0" /><line stroke="gray" stroke-opacity="0.5" stroke-width="0.5" x1="300.0" x2="300.0" y1="54.0" y2="66.0" /><circle cx="300.0" cy="60.0" fill="white" opacity="0.5" r="10.0" stroke="black" stroke-width="1" /><line opacity="0.5" stroke="black" stroke-width="2" x1="300.0" x2="300.0" y1="60.0" y2="52.0" /><text fill="black" font-family="sans-serif" font-size="12" font-weight="normal" text-anchor="middle" x="300.0" y="80.5">VOLUME</text></svg>