<?xml version="1.0" encoding="utf-8" ?>
<svg baseProfile="full" height="100.0mm" version="1.1" viewBox="0 0 150.0 100.0" width="150.0mm" xmlns="http://www.w3.org/2000/svg" xmlns:ev="http://www.w3.org/2001/xml-events" xmlns:xlink="http://www.w3.org/1999/xlink"><defs /><rect fill="#ffffff" height="100.0" width="150.0" x="0" y="0" /><circle cx="30.0" cy="40.0" fill="none" r="7.5" stroke="gray" stroke-opacity="0.5" stroke-width="0.5" /><line stroke="gray" stroke-opacity="0.5" stroke-width="0.5" x1="22.5" x2="37.5" y1="40.0" y2="40.0" /><line stroke="gray" stroke-opacity="0.5" stroke-width="0.5" x1="30.0" x2="30.0" y1="32.5" y2="47.5" /><circle cx="30.0" cy="40.0" fill="#eeeeee" opacity="0.5" r="7.5" stroke="black" stroke-width="1" /><line opacity="0.5" stroke="black" stroke-width="1" x1="24.75" x2="35.25" y1="34.75" y2="45.25" /><line opacity="0.5" stroke="black" stroke-width="1" x1="35.25" x2="24.75" y1="34.75" y2="45.25" /><text fill="black" font-family="sans-serif" font-size="4.2333333333333325" font-weight="normal" text-anchor="middle" x="30.0" y="55.46333333333333">FUSE</text><rect fill="none" height="20.0" stroke="gray" stroke-opacity="0.5" stroke-width="0.5" width="40.0" x="60.0" y="30.0" /><line stroke="gray" stroke-opacity="0.5" stroke-width="0.5" x1="60.0" x2="100.0" y1="40.0" y2="40.0" /><line stroke="gray" stroke-opacity="0.5" stroke-width="0.5" x1="80.0" x2="80.0" y1="30.0" y2="50.0" /><rect fill="#eeeeee" height="20.0" opacity="0.5" stroke="black" stroke-width="1" width="40.0" x="60.0" y="30.0" /><line opacity="0.5" stroke="black" stroke-width="1" x1="60.0" x2="100.0" y1="30.0" y2="50.0" /><line opacity="0.5" stroke="black" stroke-width="1" x1="100.0" x2="60.0" y1="30.0" y2="50.0" /><text fill="black" font-family="sans-serif" font-size="4.2333333333333325" font-weight="normal" text-anchor="middle" x="80.0" y="25.0">DISPLAY</text><circle cx="120.0" cy="40.0" fill="none" r="2.5" stroke="gray" stroke-opacity="0.5" stroke-width="0.5" /><line stroke="gray" stroke-opacity="0.5" stroke-width="0.5" x1="117.5" x2="122.5" y1="40.0" y2="40.0" /><line stroke="gray" stroke-opacity="0.5" stroke-width="0.5" x1="120.0" x2="120.0" y1="37.5" y2="42.5" /><circle cx="120.0" cy="40.0" fill="#eeeeee" opacity="0.5" r="2.5" stroke="black" stroke-width="1" /><line opacity="0.5" stroke="black" stroke-width="1" x1="118.25" x2="121.75" y1="38.25" y2="41.75" /><line opacity="0.5" stroke="black" stroke-width="1" x1="121.75" x2="118.25" y1="38.25" y2="41.75" /><text fill="black" font-family="sans-serif" font-size="8.0" font-weight="normal" text-anchor="middle" x="120.0" y="53.1">LED</text></svg>