<?xml version="1.0" encoding="utf-8" ?>
<svg baseProfile="full" height="200.0mm" version="1.1" viewBox="0 0 200.0 200.0" width="200.0mm" xmlns="http://www.w3.org/2000/svg" xmlns:ev="http://www.w3.org/2001/xml-events" xmlns:xlink="http://www.w3.org/1999/xlink"><defs /><rect fill="#ffffff" height="200.0" width="200.0" x="0" y="0" /><text fill="black" font-family="sans-serif" font-size="4.2333333333333325" font-weight="bold" text-anchor="middle" x="50.0" y="5.0">PREAMP</text><line stroke="black" stroke-width="1.0" x1="10.0" x2="90.0" y1="10.0" y2="10.0" /><line stroke="black" stroke-width="1.0" x1="10.0" x2="90.0" y1="90.0" y2="90.0" /><line stroke="black" stroke-width="1.0" x1="10.0" x2="10.0" y1="10.0" y2="90.0" /><line stroke="black" stroke-width="1.0" x1="90.0" x2="90.0" y1="10.0" y2="90.0" /><circle cx="30.0" cy="50.0" fill="none" r="3.0" stroke="gray" stroke-opacity="0.5" stroke-width="0.5" /><line stroke="gray" stroke-opacity="0.5" stroke-width="0.5" x1="24.0" x2="36.0" y1="50.0" y2="50.0" /><line stroke="gray" stroke-opacity="0.5" stroke-width="0.5" x1="30.0" x2="30.0" y1="44.0" y2="56.0" /><circle cx="30.0" cy="50.0" fill="white" opacity="0.5" r="10.0" stroke="black" stroke-width="1" /><line opacity="0.5" stroke="black" stroke-width="2" x1="30.0" x2="30.0" y1="50.0" y2="42.0" /><text fill="black" font-family="sans-serif" font-size="4.2333333333333325" font-weight="normal" text-anchor="middle" x="30.0" y="67.46333333333334">GAIN</text><circle cx="70.0" cy="50.0" fill="none" r="3.0" stroke="gray" stroke-opacity="0.5" stroke-width="0.5" /><line stroke="gray" stroke-opacity="0.5" stroke-width="0.5" x1="64.0" x2="76.0" y1="50.0" y2="50.0" /><line stroke="gray" stroke-opacity="0.5" stroke-width="0.5" x1="70.0" x2="70.0" y1="44.0" y2="56.0" /><circle cx="70.0" cy="50.0" fill="white" opacity="0.5" r="10.0" stroke="black" stroke-width="1" /><line opacity="0.5" stroke="black" stroke-width="2" x1="70.0" x2="70.0" y1="50.0" y2="42.0" /><text fill="black" font-family="sans-serif" font-size="4.2333333333333325" font-weight="normal" text-anchor="middle" x="70.0" y="67.46333333333334">VOL</text><text fill="black" font-family="sans-serif" font-size="4.2333333333333325" font-weight="bold" text-anchor="middle" x="150.0" y="11.481666666666666">EQUALIZER</text><line stroke="black" stroke-dasharray="2,2" stroke-width="1.0" x1="110.0" x2="136.57" y1="10.0" y2="10.0" /><line stroke="black" stroke-dasharray="2,2" stroke-width="1.0" x1="163.43" x2="190.0" y1="10.0" y2="10.0" /><line stroke="black" stroke-dasharray="2,2" stroke-width="1.0" x1="110.0" x2="190.0" y1="90.0" y2="90.0" /><line stroke="black" stroke-dasharray="2,2" stroke-width="1.0" x1="110.0" x2="110.0" y1="10.0" y2="90.0" /><line stroke="black" stroke-dasharray="2,2" stroke-width="1.0" x1="190.0" x2="190.0" y1="10.0" y2="90.0" /><circle cx="130.0" cy="50.0" fill="none" r="3.0" stroke="gray" stroke-opacity="0.5" stroke-width="0.5" /><line stroke="gray" stroke-opacity="0.5" stroke-width="0.5" x1="124.0" x2="136.0" y1="50.0" y2="50.0" /><line stroke="gray" stroke-opacity="0.5" stroke-width="0.5" x1="130.0" x2="130.0" y1="44.0" y2="56.0" /><circle cx="130.0" cy="50.0" fill="white" opacity="0.5" r="10.0" stroke="black" stroke-width="1" /><line opacity="0.5" stroke="black" stroke-width="2" x1="130.0" x2="130.0" y1="50.0" y2="42.0" /><text fill="black" font-family="sans-serif" font-size="4.2333333333333325" font-weight="normal" text-anchor="middle" x="130.0" y="67.46333333333334">LOW</text><circle cx="170.0" cy="50.0" fill="none" r="3.0" stroke="gray" stroke-opacity="0.5" stroke-width="0.5" /><line stroke="gray" stroke-opacity="0.5" stroke-width="0.5" x1="164.0" x2="176.0" y1="50.0" y2="50.0" /><line stroke="gray" stroke-opacity="0.5" stroke-width="0.5" x1="170.0" x2="170.0" y1="44.0" y2="56.0" /><circle cx="170.0" cy="50.0" fill="white" opacity="0.5" r="10.0" stroke="black" stroke-width="1" /><line opacity="0.5" stroke="black" stroke-width="2" x1="170.0" x2="170.0" y1="50.0" y2="42.0" /><text fill="black" font-family="sans-serif" font-size="4.2333333333333325" font-weight="normal" text-anchor="middle" x="170.0" y="67.46333333333334">HIGH</text><text fill="black" font-family="sans-serif" font-size="4.2333333333333325" font-weight="bold" text-anchor="middle" x="50.0" y="171.48166666666665">MASTER SECTION</text><line stroke="red" stroke-width="2.0" x1="10.0" x2="30.220000000000006" y1="170.0" y2="170.0" /><line stroke="red" stroke-width="2.0" x1="69.78" x2="90.0" y1="170.0" y2="170.0" /><circle cx="50.0" cy="140.0" fill="none" r="3.0" stroke="gray" stroke-opacity="0.5" stroke-width="0.5" /><line stroke="gray" stroke-opacity="0.5" stroke-width="0.5" x1="44.0" x2="56.0" y1="140.0" y2="140.0" /><line stroke="gray" stroke-opacity="0.5" stroke-width="0.5" x1="50.0" x2="50.0" y1="134.0" y2="146.0" /><circle cx="50.0" cy="140.0" fill="white" opacity="0.5" r="10.0" stroke="black" stroke-width="1" /><line opacity="0.5" stroke="black" stroke-width="2" x1="50.0" x2="50.0" y1="140.0" y2="132.0" /><text fill="black" font-family="sans-serif" font-size="4.2333333333333325" font-weight="normal" text-anchor="middle" x="50.0" y="157.46333333333334">LEVEL</text><text fill="black" font-family="sans-serif" font-size="4.2333333333333325" font-weight="bold" text-anchor="middle" x="150.0" y="105.0">OUTER</text><line stroke="black" stroke-width="1.0" x1="110.0" x2="190.0" y1="110.0" y2="110.0" /><line stroke="black" stroke-width="1.0" x1="110.0" x2="190.0" y1="190.0" y2="190.0" /><line stroke="black" stroke-width="1.0" x1="110.0" x2="110.0" y1="110.0" y2="190.0" /><line stroke="black" stroke-width="1.0" x1="190.0" x2="190.0" y1="110.0" y2="190.0" /><text fill="black" font-family="sans-serif" font-size="4.2333333333333325" font-weight="bold" text-anchor="middle" x="150.0" y="136.23333333333332">INNER</text><line stroke="black" stroke-dasharray="5,5" stroke-width="1.0" x1="120.0" x2="180.0" y1="130.0" y2="130.0" /><line stroke="black" stroke-dasharray="5,5" stroke-width="1.0" x1="120.0" x2="180.0" y1="170.0" y2="170.0" /><line stroke="black" stroke-dasharray="5,5" stroke-width="1.0" x1="120.0" x2="120.0" y1="130.0" y2="170.0" /><line stroke="black" stroke-dasharray="5,5" stroke-width="1.0" x1="180.0" x2="180.0" y1="130.0" y2="170.0" /><circle cx="150.0" cy="150.0" fill="none" r="2.5" stroke="gray" stroke-opacity="0.5" stroke-width="0.5" /><line stroke="gray" stroke-opacity="0.5" stroke-width="0.5" x1="144.5" x2="155.5" y1="150.0" y2="150.0" /><line stroke="gray" stroke-opacity="0.5" stroke-width="0.5" x1="150.0" x2="150.0" y1="144.5" y2="155.5" /><rect fill="#cccccc" height="20.0" opacity="0.5" stroke="black" width="10.0" x="145.0" y="140.0" /><circle cx="150.0" cy="150.0" fill="black" opacity="0.5" r="3.0" /><text fill="black" font-family="sans-serif" font-size="4.2333333333333325" font-weight="normal" text-anchor="middle" x="150.0" y="172.96333333333334">TEST</text></svg>