<?xml version="1.0" encoding="utf-8" ?>
<svg baseProfile="full" height="200.0mm" version="1.1" viewBox="0 0 200.0 200.0" width="200.0mm" xmlns="http://www.w3.org/2000/svg" xmlns:ev="http://www.w3.org/2001/xml-events" xmlns:xlink="http://www.w3.org/1999/xlink"><defs /><rect fill="#ffffff" height="200.0" width="200.0" x="0" y="0" /><text fill="black" font-family="sans-serif" font-size="4.2333333333333325" font-weight="normal" text-anchor="end" x="5.0" y="41.48166666666667">LEFT</text><line stroke="black" stroke-width="1.0" x1="10.0" x2="50.0" y1="10.0" y2="10.0" /><line stroke="black" stroke-width="1.0" x1="10.0" x2="50.0" y1="70.0" y2="70.0" /><line stroke="black" stroke-width="1.0" x1="10.0" x2="10.0" y1="10.0" y2="70.0" /><line stroke="black" stroke-width="1.0" x1="50.0" x2="50.0" y1="10.0" y2="70.0" /><circle cx="30.0" cy="40.0" fill="none" r="3.0" stroke="gray" stroke-opacity="0.5" stroke-width="0.5" /><line stroke="gray" stroke-opacity="0.5" stroke-width="0.5" x1="24.0" x2="36.0" y1="40.0" y2="40.0" /><line stroke="gray" stroke-opacity="0.5" stroke-width="0.5" x1="30.0" x2="30.0" y1="34.0" y2="46.0" /><circle cx="30.0" cy="40.0" fill="white" opacity="0.5" r="10.0" stroke="black" stroke-width="1" /><line opacity="0.5" stroke="black" stroke-width="2" x1="30.0" x2="30.0" y1="40.0" y2="32.0" /><text fill="black" font-family="sans-serif" font-size="4.2333333333333325" font-weight="normal" text-anchor="middle" x="30.0" y="57.46333333333333">P1</text><text fill="black" font-family="sans-serif" font-size="4.2333333333333325" font-weight="normal" text-anchor="middle" x="100.0" y="41.48166666666667">RIGHT</text><line stroke="black" stroke-dasharray="2,2" stroke-width="1.0" x1="60.0" x2="100.0" y1="10.0" y2="10.0" /><line stroke="black" stroke-dasharray="2,2" stroke-width="1.0" x1="60.0" x2="100.0" y1="70.0" y2="70.0" /><line stroke="black" stroke-dasharray="2,2" stroke-width="1.0" x1="60.0" x2="60.0" y1="10.0" y2="70.0" /><line stroke="black" stroke-dasharray="2,2" stroke-width="1.0" x1="100.0" x2="100.0" y1="10.0" y2="37.365" /><line stroke="black" stroke-dasharray="2,2" stroke-width="1.0" x1="100.0" x2="100.0" y1="45.598333333333336" y2="70.0" /><circle cx="80.0" cy="40.0" fill="none" r="3.0" stroke="gray" stroke-opacity="0.5" stroke-width="0.5" /><line stroke="gray" stroke-opacity="0.5" stroke-width="0.5" x1="74.0" x2="86.0" y1="40.0" y2="40.0" /><line stroke="gray" stroke-opacity="0.5" stroke-width="0.5" x1="80.0" x2="80.0" y1="34.0" y2="46.0" /><circle cx="80.0" cy="40.0" fill="white" opacity="0.5" r="10.0" stroke="black" stroke-width="1" /><line opacity="0.5" stroke="black" stroke-width="2" x1="80.0" x2="80.0" y1="40.0" y2="32.0" /><text fill="black" font-family="sans-serif" font-size="4.2333333333333325" font-weight="normal" text-anchor="middle" x="80.0" y="57.46333333333333">P2</text><text fill="black" font-family="sans-serif" font-size="4.2333333333333325" font-weight="normal" text-anchor="middle" x="150.0" y="11.481666666666666">EQUALIZER</text><line stroke="black" stroke-dasharray="2,2" stroke-width="1.0" x1="110.0" x2="136.57" y1="10.0" y2="10.0" /><line stroke="black" stroke-dasharray="2,2" stroke-width="1.0" x1="163.43" x2="190.0" y1="10.0" y2="10.0" /><line stroke="black" stroke-dasharray="2,2" stroke-width="1.0" x1="110.0" x2="190.0" y1="70.0" y2="70.0" /><line stroke="black" stroke-dasharray="2,2" stroke-width="1.0" x1="110.0" x2="110.0" y1="10.0" y2="70.0" /><line stroke="black" stroke-dasharray="2,2" stroke-width="1.0" x1="190.0" x2="190.0" y1="10.0" y2="70.0" /><circle cx="130.0" cy="40.0" fill="none" r="3.0" stroke="gray" stroke-opacity="0.5" stroke-width="0.5" /><line stroke="gray" stroke-opacity="0.5" stroke-width="0.5" x1="124.0" x2="136.0" y1="40.0" y2="40.0" /><line stroke="gray" stroke-opacity="0.5" stroke-width="0.5" x1="130.0" x2="130.0" y1="34.0" y2="46.0" /><circle cx="130.0" cy="40.0" fill="white" opacity="0.5" r="10.0" stroke="black" stroke-width="1" /><line opacity="0.5" stroke="black" stroke-width="2" x1="130.0" x2="130.0" y1="40.0" y2="32.0" /><text fill="black" font-family="sans-serif" font-size="4.2333333333333325" font-weight="normal" text-anchor="middle" x="130.0" y="57.46333333333333">LOW</text><circle cx="170.0" cy="40.0" fill="none" r="3.0" stroke="gray" stroke-opacity="0.5" stroke-width="0.5" /><line stroke="gray" stroke-opacity="0.5" stroke-width="0.5" x1="164.0" x2="176.0" y1="40.0" y2="40.0" /><line stroke="gray" stroke-opacity="0.5" stroke-width="0.5" x1="170.0" x2="170.0" y1="34.0" y2="46.0" /><circle cx="170.0" cy="40.0" fill="white" opacity="0.5" r="10.0" stroke="black" stroke-width="1" /><line opacity="0.5" stroke="black" stroke-width="2" x1="170.0" x2="170.0" y1="40.0" y2="32.0" /><text fill="black" font-family="sans-serif" font-size="4.2333333333333325" font-weight="normal" text-anchor="middle" x="170.0" y="57.46333333333333">HIGH</text><text fill="black" font-family="sans-serif" font-size="4.2333333333333325" font-weight="normal" text-anchor="middle" x="50.0" y="106.48166666666667">CENTERED</text><line stroke="black" stroke-width="1.0" x1="10.0" x2="90.0" y1="80.0" y2="80.0" /><line stroke="black" stroke-width="1.0" x1="10.0" x2="90.0" y1="130.0" y2="130.0" /><line stroke="black" stroke-width="1.0" x1="10.0" x2="10.0" y1="80.0" y2="130.0" /><line stroke="black" stroke-width="1.0" x1="90.0" x2="90.0" y1="80.0" y2="130.0" /><circle cx="25.0" cy="105.0" fill="none" r="2.5" stroke="gray" stroke-opacity="0.5" stroke-width="0.5" /><line stroke="gray" stroke-opacity="0.5" stroke-width="0.5" x1="19.5" x2="30.5" y1="105.0" y2="105.0" /><line stroke="gray" stroke-opacity="0.5" stroke-width="0.5" x1="25.0" x2="25.0" y1="99.5" y2="110.5" /><rect fill="#cccccc" height="20.0" opacity="0.5" stroke="black" width="10.0" x="20.0" y="95.0" /><circle cx="25.0" cy="105.0" fill="black" opacity="0.5" r="3.0" /><text fill="black" font-family="sans-serif" font-size="4.2333333333333325" font-weight="normal" text-anchor="middle" x="25.0" y="127.96333333333334">SW1</text><circle cx="75.0" cy="105.0" fill="none" r="2.5" stroke="gray" stroke-opacity="0.5" stroke-width="0.5" /><line stroke="gray" stroke-opacity="0.5" stroke-width="0.5" x1="69.5" x2="80.5" y1="105.0" y2="105.0" /><line stroke="gray" stroke-opacity="0.5" stroke-width="0.5" x1="75.0" x2="75.0" y1="99.5" y2="110.5" /><rect fill="#cccccc" height="20.0" opacity="0.5" stroke="black" width="10.0" x="70.0" y="95.0" /><circle cx="75.0" cy="105.0" fill="black" opacity="0.5" r="3.0" /><text fill="black" font-family="sans-serif" font-size="4.2333333333333325" font-weight="normal" text-anchor="middle" x="75.0" y="127.96333333333334">SW2</text><text fill="black" font-family="sans-serif" font-size="4.2333333333333325" font-weight="normal" text-anchor="middle" x="150.0" y="75.0">OUTER</text><line stroke="black" stroke-width="1.0" x1="110.0" x2="190.0" y1="80.0" y2="80.0" /><line stroke="black" stroke-width="1.0" x1="110.0" x2="190.0" y1="160.0" y2="160.0" /><line stroke="black" stroke-width="1.0" x1="110.0" x2="110.0" y1="80.0" y2="160.0" /><line stroke="black" stroke-width="1.0" x1="190.0" x2="190.0" y1="80.0" y2="160.0" /><text fill="black" font-family="sans-serif" font-size="4.2333333333333325" font-weight="normal" text-anchor="start" x="125.0" y="121.48166666666667">INNER-LEFT</text><line stroke="black" stroke-dasharray="5,5" stroke-width="1.0" x1="120.0" x2="180.0" y1="100.0" y2="100.0" /><line stroke="black" stroke-dasharray="5,5" stroke-width="1.0" x1="120.0" x2="180.0" y1="140.0" y2="140.0" /><line stroke="black" stroke-dasharray="5,5" stroke-width="1.0" x1="120.0" x2="120.0" y1="100.0" y2="140.0" /><line stroke="black" stroke-dasharray="5,5" stroke-width="1.0" x1="180.0" x2="180.0" y1="100.0" y2="140.0" /><circle cx="150.0" cy="120.0" fill="none" r="2.5" stroke="gray" stroke-opacity="0.5" stroke-width="0.5" /><line stroke="gray" stroke-opacity="0.5" stroke-width="0.5" x1="144.5" x2="155.5" y1="120.0" y2="120.0" /><line stroke="gray" stroke-opacity="0.5" stroke-width="0.5" x1="150.0" x2="150.0" y1="114.5" y2="125.5" /><rect fill="#cccccc" height="20.0" opacity="0.5" stroke="black" width="10.0" x="145.0" y="110.0" /><circle cx="150.0" cy="120.0" fill="black" opacity="0.5" r="3.0" /><text fill="black" font-family="sans-serif" font-size="4.2333333333333325" font-weight="normal" text-anchor="middle" x="150.0" y="142.96333333333334">TEST</text><circle cx="40.0" cy="165.0" fill="none" r="3.0" stroke="gray" stroke-opacity="0.5" stroke-width="0.5" /><line stroke="gray" stroke-opacity="0.5" stroke-width="0.5" x1="34.0" x2="46.0" y1="165.0" y2="165.0" /><line stroke="gray" stroke-opacity="0.5" stroke-width="0.5" x1="40.0" x2="40.0" y1="159.0" y2="171.0" /><circle cx="40.0" cy="165.0" fill="white" opacity="0.5" r="10.0" stroke="black" stroke-width="1" /><line opacity="0.5" stroke="black" stroke-width="2" x1="40.0" x2="40.0" y1="165.0" y2="157.0" /><text fill="black" font-family="sans-serif" font-size="4.2333333333333325" font-weight="normal" text-anchor="end" x="25.5" y="166.48166666666665">LEFT</text><circle cx="80.0" cy="165.0" fill="none" r="3.0" stroke="gray" stroke-opacity="0.5" stroke-width="0.5" /><line stroke="gray" stroke-opacity="0.5" stroke-width="0.5" x1="74.0" x2="86.0" y1="165.0" y2="165.0" /><line stroke="gray" stroke-opacity="0.5" stroke-width="0.5" x1="80.0" x2="80.0" y1="159.0" y2="171.0" /><circle cx="80.0" cy="165.0" fill="white" opacity="0.5" r="10.0" stroke="black" stroke-width="1" /><line opacity="0.5" stroke="black" stroke-width="2" x1="80.0" x2="80.0" y1="165.0" y2="157.0" /><text fill="black" font-family="sans-serif" font-size="4.2333333333333325" font-weight="normal" text-anchor="start" x="94.5" y="166.48166666666665">RIGHT</text><circle cx="120.0" cy="165.0" fill="none" r="2.5" stroke="gray" stroke-opacity="0.5" stroke-width="0.5" /><line stroke="gray" stroke-opacity="0.5" stroke-width="0.5" x1="114.5" x2="125.5" y1="165.0" y2="165.0" /><line stroke="gray" stroke-opacity="0.5" stroke-width="0.5" x1="120.0" x2="120.0" y1="159.5" y2="170.5" /><rect fill="#cccccc" height="20.0" opacity="0.5" stroke="black" width="10.0" x="115.0" y="155.0" /><circle cx="120.0" cy="165.0" fill="black" opacity="0.5" r="3.0" /><text fill="black" font-family="sans-serif" font-size="4.2333333333333325" font-weight="normal" text-anchor="start" x="100.0" y="166.48166666666665">L-IN</text><circle cx="160.0" cy="165.0" fill="none" r="5.0" stroke="gray" stroke-opacity="0.5" stroke-width="0.5" /><line stroke="gray" stroke-opacity="0.5" stroke-width="0.5" x1="152.0" x2="168.0" y1="165.0" y2="165.0" /><line stroke="gray" stroke-opacity="0.5" stroke-width="0.5" x1="160.0" x2="160.0" y1="157.0" y2="173.0" /><circle cx="160.0" cy="165.0" fill="#333333" opacity="0.5" r="10.0" stroke="black" stroke-width="1" /><circle cx="160.0" cy="165.0" fill="black" opacity="0.5" r="5.0" /><text fill="black" font-family="sans-serif" font-size="4.2333333333333325" font-weight="normal" text-anchor="middle" x="175.0" y="166.48166666666665">R-IN</text></svg>