<?xml version="1.0" encoding="utf-8" ?>
<svg baseProfile="full" height="126.0mm" version="1.1" viewBox="0 0 70.0 126.0" width="70.0mm" xmlns="http://www.w3.org/2000/svg" xmlns:ev="http://www.w3.org/2001/xml-events" xmlns:xlink="http://www.w3.org/1999/xlink"><defs /><rect fill="#05AA05" height="126.0" width="70.0" x="0" y="0" /><text fill="black" font-family="zapfino" font-size="8.819444444444443" font-weight="bold" text-anchor="middle" x="35.0" y="116.0">Banshee</text><line stroke="black" stroke-width="0.5" x1="5.0" x2="65.0" y1="5.0" y2="5.0" /><line stroke="black" stroke-width="0.5" x1="5.0" x2="65.0" y1="121.0" y2="121.0" /><line stroke="black" stroke-width="0.5" x1="5.0" x2="5.0" y1="5.0" y2="121.0" /><line stroke="black" stroke-width="0.5" x1="65.0" x2="65.0" y1="5.0" y2="121.0" /><circle cx="17.0" cy="19.0" fill="none" r="3.0" stroke="gray" stroke-opacity="0.5" stroke-width="0.5" /><line stroke="gray" stroke-opacity="0.5" stroke-width="0.5" x1="14.0" x2="20.0" y1="19.0" y2="19.0" /><line stroke="gray" stroke-opacity="0.5" stroke-width="0.5" x1="17.0" x2="17.0" y1="16.0" y2="22.0" /><circle cx="10.636038969321072" cy="25.36396103067893" fill="black" r="0.5" /><circle cx="8.440491353343619" cy="21.781152949374526" fill="black" r="0.5" /><circle cx="8.11080493464376" cy="17.592089814637923" fill="black" r="0.5" /><circle cx="9.718847050625474" cy="13.709932729367743" fill="black" r="0.5" /><circle cx="12.914085502344077" cy="10.98094128230469" fill="black" r="0.5" /><circle cx="17.0" cy="10.0" fill="black" r="0.5" /><circle cx="21.08591449765592" cy="10.98094128230469" fill="black" r="0.5" /><circle cx="24.281152949374526" cy="13.70993272936774" fill="black" r="0.5" /><circle cx="25.88919506535624" cy="17.59208981463792" fill="black" r="0.5" /><circle cx="25.559508646656383" cy="21.781152949374523" fill="black" r="0.5" /><circle cx="23.36396103067893" cy="25.363961030678926" fill="black" r="0.5" /><circle cx="17.0" cy="19.0" fill="white" opacity="0.5" r="6.0" stroke="black" stroke-width="1" /><line opacity="0.5" stroke="black" stroke-width="2" x1="17.0" x2="17.0" y1="19.0" y2="15.0" /><text fill="black" font-family="sans-serif" font-size="3.5277777777777777" font-weight="bold" text-anchor="middle" x="17.0" y="31.469444444444445">LEVEL</text><circle cx="53.0" cy="19.0" fill="none" r="3.0" stroke="gray" stroke-opacity="0.5" stroke-width="0.5" /><line stroke="gray" stroke-opacity="0.5" stroke-width="0.5" x1="50.0" x2="56.0" y1="19.0" y2="19.0" /><line stroke="gray" stroke-opacity="0.5" stroke-width="0.5" x1="53.0" x2="53.0" y1="16.0" y2="22.0" /><circle cx="46.63603896932107" cy="25.36396103067893" fill="black" r="0.5" /><circle cx="44.44049135334362" cy="21.781152949374526" fill="black" r="0.5" /><circle cx="44.11080493464376" cy="17.592089814637923" fill="black" r="0.5" /><circle cx="45.71884705062547" cy="13.709932729367743" fill="black" r="0.5" /><circle cx="48.91408550234408" cy="10.98094128230469" fill="black" r="0.5" /><circle cx="53.0" cy="10.0" fill="black" r="0.5" /><circle cx="57.08591449765592" cy="10.98094128230469" fill="black" r="0.5" /><circle cx="60.28115294937453" cy="13.70993272936774" fill="black" r="0.5" /><circle cx="61.88919506535624" cy="17.59208981463792" fill="black" r="0.5" /><circle cx="61.55950864665638" cy="21.781152949374523" fill="black" r="0.5" /><circle cx="59.36396103067893" cy="25.363961030678926" fill="black" r="0.5" /><circle cx="53.0" cy="19.0" fill="white" opacity="0.5" r="6.0" stroke="black" stroke-width="1" /><line opacity="0.5" stroke="black" stroke-width="2" x1="53.0" x2="53.0" y1="19.0" y2="15.0" /><text fill="black" font-family="sans-serif" font-size="3.5277777777777777" font-weight="bold" text-anchor="middle" x="53.0" y="31.469444444444445">DRIVE</text><circle cx="17.0" cy="49.0" fill="none" r="3.0" stroke="gray" stroke-opacity="0.5" stroke-width="0.5" /><line stroke="gray" stroke-opacity="0.5" stroke-width="0.5" x1="14.0" x2="20.0" y1="49.0" y2="49.0" /><line stroke="gray" stroke-opacity="0.5" stroke-width="0.5" x1="17.0" x2="17.0" y1="46.0" y2="52.0" /><circle cx="10.636038969321072" cy="55.36396103067893" fill="black" r="0.5" /><circle cx="8.440491353343619" cy="51.78115294937453" fill="black" r="0.5" /><circle cx="8.11080493464376" cy="47.59208981463792" fill="black" r="0.5" /><circle cx="9.718847050625474" cy="43.70993272936774" fill="black" r="0.5" /><circle cx="12.914085502344077" cy="40.98094128230469" fill="black" r="0.5" /><circle cx="17.0" cy="40.0" fill="black" r="0.5" /><circle cx="21.08591449765592" cy="40.98094128230469" fill="black" r="0.5" /><circle cx="24.281152949374526" cy="43.709932729367736" fill="black" r="0.5" /><circle cx="25.88919506535624" cy="47.59208981463792" fill="black" r="0.5" /><circle cx="25.559508646656383" cy="51.78115294937452" fill="black" r="0.5" /><circle cx="23.36396103067893" cy="55.36396103067892" fill="black" r="0.5" /><circle cx="17.0" cy="49.0" fill="white" opacity="0.5" r="6.0" stroke="black" stroke-width="1" /><line opacity="0.5" stroke="black" stroke-width="2" x1="17.0" x2="17.0" y1="49.0" y2="45.0" /><text fill="black" font-family="sans-serif" font-size="3.5277777777777777" font-weight="bold" text-anchor="middle" x="17.0" y="61.46944444444444">TONE</text><circle cx="53.0" cy="49.0" fill="none" r="3.0" stroke="gray" stroke-opacity="0.5" stroke-width="0.5" /><line stroke="gray" stroke-opacity="0.5" stroke-width="0.5" x1="50.0" x2="56.0" y1="49.0" y2="49.0" /><line stroke="gray" stroke-opacity="0.5" stroke-width="0.5" x1="53.0" x2="53.0" y1="46.0" y2="52.0" /><circle cx="46.63603896932107" cy="55.36396103067893" fill="black" r="0.5" /><circle cx="44.44049135334362" cy="51.78115294937453" fill="black" r="0.5" /><circle cx="44.11080493464376" cy="47.59208981463792" fill="black" r="0.5" /><circle cx="45.71884705062547" cy="43.70993272936774" fill="black" r="0.5" /><circle cx="48.91408550234408" cy="40.98094128230469" fill="black" r="0.5" /><circle cx="53.0" cy="40.0" fill="black" r="0.5" /><circle cx="57.08591449765592" cy="40.98094128230469" fill="black" r="0.5" /><circle cx="60.28115294937453" cy="43.709932729367736" fill="black" r="0.5" /><circle cx="61.88919506535624" cy="47.59208981463792" fill="black" r="0.5" /><circle cx="61.55950864665638" cy="51.78115294937452" fill="black" r="0.5" /><circle cx="59.36396103067893" cy="55.36396103067892" fill="black" r="0.5" /><circle cx="53.0" cy="49.0" fill="white" opacity="0.5" r="6.0" stroke="black" stroke-width="1" /><line opacity="0.5" stroke="black" stroke-width="2" x1="53.0" x2="53.0" y1="49.0" y2="45.0" /><text fill="black" font-family="sans-serif" font-size="3.5277777777777777" font-weight="bold" text-anchor="middle" x="53.0" y="61.46944444444444">VOICE</text><circle cx="35.0" cy="19.0" fill="none" r="2.5" stroke="gray" stroke-opacity="0.5" stroke-width="0.5" /><line stroke="gray" stroke-opacity="0.5" stroke-width="0.5" x1="32.5" x2="37.5" y1="19.0" y2="19.0" /><line stroke="gray" stroke-opacity="0.5" stroke-width="0.5" x1="35.0" x2="35.0" y1="16.5" y2="21.5" /><circle cx="35.0" cy="19.0" fill="#cccccc" opacity="0.5" r="3.0" stroke="black" /><circle cx="35.0" cy="19.0" fill="gray" opacity="0.5" r="1.7999999999999998" stroke="black" /><text fill="black" font-family="sans-serif" font-size="3.5277777777777777" font-weight="bold" text-anchor="middle" x="35.0" y="26.469444444444445">CLIP</text><circle cx="35.0" cy="33.0" fill="none" r="2.5" stroke="gray" stroke-opacity="0.5" stroke-width="0.5" /><line stroke="gray" stroke-opacity="0.5" stroke-width="0.5" x1="32.5" x2="37.5" y1="33.0" y2="33.0" /><line stroke="gray" stroke-opacity="0.5" stroke-width="0.5" x1="35.0" x2="35.0" y1="30.5" y2="35.5" /><circle cx="35.0" cy="33.0" fill="#cccccc" opacity="0.5" r="3.0" stroke="black" /><circle cx="35.0" cy="33.0" fill="gray" opacity="0.5" r="1.7999999999999998" stroke="black" /><text fill="black" font-family="sans-serif" font-size="3.5277777777777777" font-weight="bold" text-anchor="middle" x="35.0" y="40.46944444444444">BRIGHT</text><circle cx="35.0" cy="47.0" fill="none" r="2.5" stroke="gray" stroke-opacity="0.5" stroke-width="0.5" /><line stroke="gray" stroke-opacity="0.5" stroke-width="0.5" x1="32.5" x2="37.5" y1="47.0" y2="47.0" /><line stroke="gray" stroke-opacity="0.5" stroke-width="0.5" x1="35.0" x2="35.0" y1="44.5" y2="49.5" /><circle cx="35.0" cy="47.0" fill="#cccccc" opacity="0.5" r="3.0" stroke="black" /><circle cx="35.0" cy="47.0" fill="gray" opacity="0.5" r="1.7999999999999998" stroke="black" /><text fill="black" font-family="sans-serif" font-size="3.5277777777777777" font-weight="bold" text-anchor="middle" x="35.0" y="54.46944444444444">FAT</text><circle cx="35.0" cy="73.0" fill="none" r="2.5" stroke="gray" stroke-opacity="0.5" stroke-width="0.5" /><line stroke="gray" stroke-opacity="0.5" stroke-width="0.5" x1="32.5" x2="37.5" y1="73.0" y2="73.0" /><line stroke="gray" stroke-opacity="0.5" stroke-width="0.5" x1="35.0" x2="35.0" y1="70.5" y2="75.5" /><circle cx="35.0" cy="73.0" fill="#eeeeee" opacity="0.5" r="2.5" stroke="black" stroke-width="1" /><line opacity="0.5" stroke="black" stroke-width="1" x1="33.25" x2="36.75" y1="71.25" y2="74.75" /><line opacity="0.5" stroke="black" stroke-width="1" x1="36.75" x2="33.25" y1="71.25" y2="74.75" /><circle cx="35.0" cy="95.0" fill="none" r="6.0" stroke="gray" stroke-opacity="0.5" stroke-width="0.5" /><line stroke="gray" stroke-opacity="0.5" stroke-width="0.5" x1="29.0" x2="41.0" y1="95.0" y2="95.0" /><line stroke="gray" stroke-opacity="0.5" stroke-width="0.5" x1="35.0" x2="35.0" y1="89.0" y2="101.0" /><circle cx="35.0" cy="95.0" fill="#eeeeee" opacity="0.5" r="6.0" stroke="black" stroke-width="1" /><line opacity="0.5" stroke="black" stroke-width="1" x1="30.8" x2="39.2" y1="90.8" y2="99.2" /><line opacity="0.5" stroke="black" stroke-width="1" x1="39.2" x2="30.8" y1="90.8" y2="99.2" /></svg>