<?xml version="1.0" encoding="utf-8" ?>
<svg baseProfile="full" height="200.0mm" version="1.1" viewBox="0 0 200.0 200.0" width="200.0mm" xmlns="http://www.w3.org/2000/svg" xmlns:ev="http://www.w3.org/2001/xml-events" xmlns:xlink="http://www.w3.org/1999/xlink"><defs /><rect fill="#ffffff" height="200.0" width="200.0" x="0" y="0" /><circle cx="30.0" cy="30.0" fill="none" r="3.0" stroke="gray" stroke-opacity="0.5" stroke-width="0.5" /><line stroke="gray" stroke-opacity="0.5" stroke-width="0.5" x1="24.0" x2="36.0" y1="30.0" y2="30.0" /><line stroke="gray" stroke-opacity="0.5" stroke-width="0.5" x1="30.0" x2="30.0" y1="24.0" y2="36.0" /><circle cx="30.0" cy="30.0" fill="white" opacity="0.5" r="10.0" stroke="black" stroke-width="1" /><line opacity="0.5" stroke="black" stroke-width="2" x1="30.0" x2="30.0" y1="30.0" y2="22.0" /><text fill="black" font-family="sans-serif" font-size="4.2333333333333325" font-weight="normal" text-anchor="middle" x="30.0" y="47.46333333333333">MINIMAL</text><circle cx="80.0" cy="30.0" fill="none" r="3.0" stroke="gray" stroke-opacity="0.5" stroke-width="0.5" /><line stroke="gray" stroke-opacity="0.5" stroke-width="0.5" x1="74.0" x2="86.0" y1="30.0" y2="30.0" /><line stroke="gray" stroke-opacity="0.5" stroke-width="0.5" x1="80.0" x2="80.0" y1="24.0" y2="36.0" /><line stroke="black" stroke-width="1.5" x1="70.45405845398162" x2="68.33273811042197" y1="39.54594154601839" y2="41.667261889578036" /><line stroke="black" stroke-width="1.5" x1="67.16073703001543" x2="64.30756748112996" y1="34.171729424061795" y2="35.09878040718664" /><line stroke="black" stroke-width="1.5" x1="66.66620740196564" x2="63.703142380180225" y1="27.888134721956884" y2="27.41883132683619" /><line stroke="black" stroke-width="1.5" x1="69.0782705759382" x2="66.65121959281336" y1="22.064899094051615" y2="20.301543337174195" /><line stroke="black" stroke-width="1.5" x1="73.87112825351612" x2="72.50915675429748" y1="17.971411923457033" y2="15.298392350891932" /><line stroke="black" stroke-width="1.5" x1="80.0" x2="80.0" y1="16.5" y2="13.5" /><line stroke="black" stroke-width="1.5" x1="86.12887174648388" x2="87.49084324570252" y1="17.971411923457033" y2="15.29839235089193" /><line stroke="black" stroke-width="1.5" x1="90.9217294240618" x2="93.34878040718664" y1="22.06489909405161" y2="20.301543337174188" /><line stroke="black" stroke-width="1.5" x1="93.33379259803436" x2="96.29685761981978" y1="27.88813472195688" y2="27.418831326836187" /><line stroke="black" stroke-width="1.5" x1="92.83926296998457" x2="95.69243251887004" y1="34.17172942406179" y2="35.09878040718663" /><line stroke="black" stroke-width="1.5" x1="89.5459415460184" x2="91.66726188957804" y1="39.54594154601839" y2="41.66726188957803" /><circle cx="80.0" cy="30.0" fill="white" opacity="0.5" r="10.0" stroke="black" stroke-width="1" /><line opacity="0.5" stroke="black" stroke-width="2" x1="80.0" x2="80.0" y1="30.0" y2="22.0" /><text fill="black" font-family="sans-serif" font-size="4.2333333333333325" font-weight="normal" text-anchor="middle" x="80.0" y="52.46333333333333">STANDARD</text><circle cx="130.0" cy="30.0" fill="none" r="4.0" stroke="gray" stroke-opacity="0.5" stroke-width="0.5" /><line stroke="gray" stroke-opacity="0.5" stroke-width="0.5" x1="123.0" x2="137.0" y1="30.0" y2="30.0" /><line stroke="gray" stroke-opacity="0.5" stroke-width="0.5" x1="130.0" x2="130.0" y1="23.0" y2="37.0" /><circle cx="130.0" cy="30.0" fill="none" r="15.0" stroke="black" stroke-width="1.0" /><line stroke="black" stroke-width="1.5" x1="118.68629150101523" x2="117.27207793864214" y1="41.31370849898476" y2="42.72792206135786" /><line stroke="black" stroke-width="1.5" x1="114.78309573927754" x2="112.88098270668723" y1="34.94427190999916" y2="35.56230589874905" /><line stroke="black" stroke-width="1.5" x1="114.19698655047779" x2="112.22160986928752" y1="27.49704855935631" y2="27.184179629275846" /><line stroke="black" stroke-width="1.5" x1="117.05572809000084" x2="115.43769410125094" y1="20.595435963320433" y2="19.419865458735487" /><line stroke="black" stroke-width="1.5" x1="122.73615200416725" x2="121.82817100468816" y1="15.743895612986115" y2="13.961882564609379" /><line stroke="black" stroke-width="1.5" x1="130.0" x2="130.0" y1="14.0" y2="12.0" /><line stroke="black" stroke-width="1.5" x1="137.26384799583275" x2="138.17182899531184" y1="15.743895612986114" y2="13.961882564609379" /><line stroke="black" stroke-width="1.5" x1="142.94427190999915" x2="144.56230589874906" y1="20.595435963320426" y2="19.41986545873548" /><line stroke="black" stroke-width="1.5" x1="145.8030134495222" x2="147.77839013071247" y1="27.4970485593563" y2="27.18417962927584" /><line stroke="black" stroke-width="1.5" x1="145.21690426072246" x2="147.11901729331277" y1="34.94427190999915" y2="35.562305898749045" /><line stroke="black" stroke-width="1.5" x1="141.31370849898477" x2="142.72792206135784" y1="41.31370849898476" y2="42.72792206135785" /><circle cx="130.0" cy="30.0" fill="white" opacity="0.5" r="10.0" stroke="black" stroke-width="1" /><line opacity="0.5" stroke="black" stroke-width="2" x1="130.0" x2="130.0" y1="30.0" y2="22.0" /><text fill="black" font-family="sans-serif" font-size="4.2333333333333325" font-weight="normal" text-anchor="middle" x="130.0" y="9.0">BORDERED</text><circle cx="30.0" cy="90.0" fill="none" r="3.0" stroke="gray" stroke-opacity="0.5" stroke-width="0.5" /><line stroke="gray" stroke-opacity="0.5" stroke-width="0.5" x1="24.0" x2="36.0" y1="90.0" y2="90.0" /><line stroke="gray" stroke-opacity="0.5" stroke-width="0.5" x1="30.0" x2="30.0" y1="84.0" y2="96.0" /><circle cx="19.746951672795063" cy="100.25304832720494" fill="black" r="1.0" /><circle cx="18.27619774013123" cy="97.1843552648443" fill="black" r="0.25" /><circle cx="16.922972900941637" cy="94.24898367265553" fill="black" r="0.25" /><circle cx="16.29238666116949" cy="91.07881256625787" fill="black" r="0.25" /><circle cx="16.419285316816854" cy="87.84902610569682" fill="black" r="0.25" /><circle cx="16.60374677858634" cy="84.4510902307062" fill="black" r="1.0" /><circle cx="18.876016327344473" cy="81.9179527809785" fill="black" r="0.25" /><circle cx="21.070089335459976" cy="79.54441797299957" fill="black" r="0.25" /><circle cx="23.75763062858123" cy="77.74866029240994" fill="black" r="0.25" /><circle cx="26.790126246981306" cy="76.62991359453194" fill="black" r="0.25" /><circle cx="29.999999999999996" cy="75.5" fill="black" r="1.0" /><circle cx="33.209873753018705" cy="76.62991359453194" fill="black" r="0.25" /><circle cx="36.24236937141877" cy="77.74866029240994" fill="black" r="0.25" /><circle cx="38.92991066454003" cy="79.54441797299958" fill="black" r="0.25" /><circle cx="41.12398367265553" cy="81.9179527809785" fill="black" r="0.25" /><circle cx="43.39625322141366" cy="84.4510902307062" fill="black" r="1.0" /><circle cx="43.580714683183146" cy="87.84902610569682" fill="black" r="0.25" /><circle cx="43.70761333883051" cy="91.07881256625787" fill="black" r="0.25" /><circle cx="43.07702709905836" cy="94.24898367265553" fill="black" r="0.25" /><circle cx="41.72380225986877" cy="97.1843552648443" fill="black" r="0.25" /><circle cx="40.253048327204944" cy="100.25304832720494" fill="black" r="1.0" /><circle cx="30.0" cy="90.0" fill="white" opacity="0.5" r="10.0" stroke="black" stroke-width="1" /><line opacity="0.5" stroke="black" stroke-width="2" x1="30.0" x2="30.0" y1="90.0" y2="82.0" /><text fill="black" font-family="sans-serif" font-size="4.2333333333333325" font-weight="normal" text-anchor="middle" x="30.0" y="111.46333333333334">DOTS</text><circle cx="80.0" cy="90.0" fill="none" r="3.0" stroke="gray" stroke-opacity="0.5" stroke-width="0.5" /><line stroke="gray" stroke-opacity="0.5" stroke-width="0.5" x1="74.0" x2="86.0" y1="90.0" y2="90.0" /><line stroke="gray" stroke-opacity="0.5" stroke-width="0.5" x1="80.0" x2="80.0" y1="84.0" y2="96.0" /><line stroke="black" stroke-width="1.5" x1="70.75" x2="68.25" y1="106.02146997001212" y2="110.35159698893432" /><line stroke="black" stroke-width="1.5" x1="63.97853002998788" x2="59.64840301106569" y1="99.25" y2="101.75" /><line stroke="black" stroke-width="1.5" x1="61.5" x2="56.5" y1="90.0" y2="90.0" /><line stroke="black" stroke-width="1.5" x1="63.97853002998789" x2="59.648403011065696" y1="80.75" y2="78.25" /><line stroke="black" stroke-width="1.5" x1="70.74999999999999" x2="68.24999999999999" y1="73.9785300299879" y2="69.6484030110657" /><line stroke="black" stroke-width="1.5" x1="80.0" x2="80.0" y1="71.5" y2="66.5" /><line stroke="black" stroke-width="1.5" x1="89.25" x2="91.75" y1="73.9785300299879" y2="69.6484030110657" /><line stroke="black" stroke-width="1.5" x1="96.0214699700121" x2="100.3515969889343" y1="80.74999999999999" y2="78.24999999999999" /><line stroke="black" stroke-width="1.5" x1="98.5" x2="103.5" y1="90.0" y2="90.0" /><line stroke="black" stroke-width="1.5" x1="96.0214699700121" x2="100.3515969889343" y1="99.25" y2="101.75" /><line stroke="black" stroke-width="1.5" x1="89.25" x2="91.75" y1="106.02146997001212" y2="110.35159698893432" /><circle cx="80.0" cy="90.0" fill="white" opacity="0.5" r="17.5" stroke="black" stroke-width="1" /><line opacity="0.5" stroke="black" stroke-width="2" x1="80.0" x2="80.0" y1="90.0" y2="74.5" /><text fill="black" font-family="sans-serif" font-size="4.2333333333333325" font-weight="normal" text-anchor="middle" x="80.0" y="114.46333333333334">LARGE</text><circle cx="130.0" cy="90.0" fill="none" r="3.0" stroke="gray" stroke-opacity="0.5" stroke-width="0.5" /><line stroke="gray" stroke-opacity="0.5" stroke-width="0.5" x1="124.0" x2="136.0" y1="90.0" y2="90.0" /><line stroke="gray" stroke-opacity="0.5" stroke-width="0.5" x1="130.0" x2="130.0" y1="84.0" y2="96.0" /><line stroke="black" stroke-width="1.5" x1="120.45405845398162" x2="119.03984489160851" y1="99.5459415460184" y2="100.96015510839149" /><line stroke="black" stroke-width="1.5" x1="117.16073703001543" x2="115.25862399742512" y1="94.1717294240618" y2="94.78976341281168" /><line stroke="black" stroke-width="1.5" x1="116.66620740196564" x2="114.69083072077537" y1="87.88813472195689" y2="87.57526579187642" /><line stroke="black" stroke-width="1.5" x1="119.0782705759382" x2="117.46023658718832" y1="82.06489909405161" y2="80.88932858946667" /><line stroke="black" stroke-width="1.5" x1="123.87112825351612" x2="122.96314725403703" y1="77.97141192345704" y2="76.1893988750803" /><line stroke="black" stroke-width="1.5" x1="130.0" x2="130.0" y1="76.5" y2="74.5" /><line stroke="black" stroke-width="1.5" x1="136.12887174648387" x2="137.03685274596296" y1="77.97141192345703" y2="76.1893988750803" /><line stroke="black" stroke-width="1.5" x1="140.9217294240618" x2="142.53976341281168" y1="82.06489909405161" y2="80.88932858946666" /><line stroke="black" stroke-width="1.5" x1="143.33379259803436" x2="145.30916927922465" y1="87.88813472195687" y2="87.57526579187642" /><line stroke="black" stroke-width="1.5" x1="142.8392629699846" x2="144.7413760025749" y1="94.17172942406178" y2="94.78976341281168" /><line stroke="black" stroke-width="1.5" x1="139.54594154601838" x2="140.9601551083915" y1="99.54594154601838" y2="100.96015510839149" /><circle cx="130.0" cy="90.0" fill="white" opacity="0.5" r="12.5" stroke="black" stroke-width="1" /><line opacity="0.5" stroke="black" stroke-width="2" x1="130.0" x2="130.0" y1="90.0" y2="79.5" /><text fill="blue" font-family="serif" font-size="4.938888888888888" font-weight="bold" text-anchor="middle" x="130.0" y="118.45722222222223">STYLED</text></svg>