<?xml version="1.0" encoding="utf-8" ?>
<svg baseProfile="full" height="200.0mm" version="1.1" viewBox="0 0 200.0 200.0" width="200.0mm" xmlns="http://www.w3.org/2000/svg" xmlns:ev="http://www.w3.org/2001/xml-events" xmlns:xlink="http://www.w3.org/1999/xlink"><defs /><rect fill="#ffffff" height="200.0" width="200.0" x="0" y="0" /><circle cx="30.0" cy="30.0" fill="none" r="3.0" stroke="gray" stroke-opacity="0.5" stroke-width="0.5" /><line stroke="gray" stroke-opacity="0.5" stroke-width="0.5" x1="24.0" x2="36.0" y1="30.0" y2="30.0" /><line stroke="gray" stroke-opacity="0.5" stroke-width="0.5" x1="30.0" x2="30.0" y1="24.0" y2="36.0" /><circle cx="30.0" cy="30.0" fill="white" opacity="0.5" r="10.0" stroke="black" stroke-width="1" /><line opacity="0.5" stroke="black" stroke-width="2" x1="30.0" x2="30.0" y1="30.0" y2="22.0" /><text fill="black" font-family="sans-serif" font-size="4.2333333333333325" font-weight="normal" text-anchor="middle" x="30.0" y="47.46333333333333">MINIMAL</text><circle cx="80.0" cy="30.0" fill="none" r="3.0" stroke="gray" stroke-opacity="0.5" stroke-width="0.5" /><line stroke="gray" stroke-opacity="0.5" stroke-width="0.5" x1="74.0" x2="86.0" y1="30.0" y2="30.0" /><line stroke="gray" stroke-opacity="0.5" stroke-width="0.5" x1="80.0" x2="80.0" y1="24.0" y2="36.0" /><line stroke="black" stroke-width="1.5" x1="70.45405845398162" x2="68.33273811042197" y1="39.54594154601839" y2="41.667261889578036" /><line stroke="black" stroke-width="1.5" x1="67.16073703001543" x2="64.30756748112996" y1="34.171729424061795" y2="35.09878040718664" /><line stroke="black" stroke-width="1.5" x1="66.66620740196564" x2="63.703142380180225" y1="27.888134721956884" y2="27.41883132683619" /><line stroke="black" stroke-width="1.5" x1="69.0782705759382" x2="66.65121959281336" y1="22.064899094051615" y2="20.301543337174195" /><line stroke="black" stroke-width="1.5" x1="73.87112825351612" x2="72.50915675429748" y1="17.971411923457033" y2="15.298392350891932" /><line stroke="black" stroke-width="1.5" x1="80.0" x2="80.0" y1="16.5" y2="13.5" /><line stroke="black" stroke-width="1.5" x1="86.12887174648388" x2="87.49084324570252" y1="17.971411923457033" y2="15.29839235089193" /><line stroke="black" stroke-width="1.5" x1="90.9217294240618" x2="93.34878040718664" y1="22.06489909405161" y2="20.301543337174188" /><line stroke="black" stroke-width="1.5" x1="93.33379259803436" x2="96.29685761981978" y1="27.88813472195688" y2="27.418831326836187" /><line stroke="black" stroke-width="1.5" x1="92.83926296998457" x2="95.69243251887004" y1="34.17172942406179" y2="35.09878040718663" /><line stroke="black" stroke-width="1.5" x1="89.5459415460184" x2="91.66726188957804" y1="39.54594154601839" y2="41.66726188957803" /><circle cx="80.0" cy="30.0" fill="white" opacity="0.5" r="10.0" stroke="black" stroke-width="1" /><line opacity="0.5" stroke="black" stroke-width="2" x1="80.0" x2="80.0" y1="30.0" y2="22.0" /><text fill="black" font-family="sans-serif" font-size="4.2333333333333325" font-weight="normal" text-anchor="middle" x="80.0" y="52.46333333333333">STANDARD</text><circle cx="130.0" cy="30.0" fill="none" r="4.0" stroke="gray" stroke-opacity="0.5" stroke-width="0.5" /><line stroke="gray" stroke-opacity="0.5" stroke-width="0.5" x1="123.0" x2="137.0" y1="30.0" y2="30.0" /><line stroke="gray" stroke-opacity="0.5" stroke-width="0.5" x1="130.0" x2="130.0" y1="23.0" y2="37.0" /><circle cx="130.0" cy="30.0" fill="none" r="15.0" stroke="black" stroke-width="1.0" /><line stroke="black" stroke-width="1.5" x1="118.68629150101523" x2="117.27207793864214" y1="41.31370849898476" y2="42.72792206135786" /><line stroke="black" stroke-width="1.5" x1="114.78309573927754" x2="112.88098270668723" y1="34.94427190999916" y2="35.56230589874905" /><line stroke="black" stroke-width="1.5" x1="114.19698655047779" x2="112.22160986928752" y1="27.49704855935631" y2="27.184179629275846" /><line stroke="black" stroke-width="1.5" x1="117.05572809000084" x2="115.43769410125094" y1="20.595435963320433" y2="19.419865458735487" /><line stroke="black" stroke-width="1.5" x1="122.73615200416725" x2="121.82817100468816" y1="15.743895612986115" y2="13.961882564609379" /><line stroke="black" stroke-width="1.5" x1="130.0" x2="130.0" y1="14.0" y2="12.0" /><line stroke="black" stroke-width="1.5" x1="137.26384799583275" x2="138.17182899531184" y1="15.743895612986114" y2="13.961882564609379" /><line stroke="black" stroke-width="1.5" x1="142.94427190999915" x2="144.56230589874906" y1="20.595435963320426" y2="19.41986545873548" /><line stroke="black" stroke-width="1.5" x1="145.8030134495222" x2="147.77839013071247" y1="27.4970485593563" y2="27.18417962927584" /><line stroke="black" stroke-width="1.5" x1="145.21690426072246" x2="147.11901729331277" y1="34.94427190999915" y2="35.562305898749045" /><line stroke="black" stroke-width="1.5" x1="141.31370849898477" x2="142.72792206135784" y1="41.31370849898476" y2="42.72792206135785" /><circle cx="130.0" cy="30.0" fill="white" opacity="0.5" r="10.0" stroke="black" stroke-width="1" /><line opacity="0.5" stroke="black" stroke-width="2" x1="130.0" x2="130.0" y1="30.0" y2="22.0" /><text fill="black" font-family="sans-serif" font-size="4.2333333333333325" font-weight="normal" text-anchor="middle" x="130.0" y="9.0">BORDERED</text><circle cx="30.0" cy="90.0" fill="none" r="3.0" stroke="gray" stroke-opacity="0.5" stroke-width="0.5" /><line stroke="gray" stroke-opacity="0.5" stroke-width="0.5" x1="24.0" x2="36.0" y1="90.0" y2="90.0" /><line stroke="gray" stroke-opacity="0.5" stroke-width="0.5" x1="30.0" x2="30.0" y1="84.0" y2="96.0" /><circle cx="30.0" cy="90.0" fill="none" r="17.5" stroke="black" stroke-width="0.5" /><circle cx="19.039844891608514" cy="100.96015510839149" fill="black" r="1.0" /><circle cx="16.144597329246004" cy="98.49060167663417" fill="black" r="0.25" /><circle cx="14.545331610203755" cy="95.02152615859289" fill="black" r="0.25" /><circle cx="13.80009332683667" cy="91.27496030557748" fill="black" r="0.25" /><circle cx="13.95006446532901" cy="87.45793994309625" fill="black" r="0.25" /><circle cx="15.679867246075053" cy="84.06840679834112" fill="black" r="1.0" /><circle cx="16.8534738414071" cy="80.44848965024731" fill="black" r="0.25" /><circle cx="19.44646921463452" cy="77.6434030589995" fill="black" r="0.25" /><circle cx="22.622654379232362" cy="75.52114398193902" fill="black" r="0.25" /><circle cx="26.206512837341542" cy="74.19898879353775" fill="black" r="0.25" /><circle cx="29.999999999999996" cy="74.5" fill="black" r="1.0" /><circle cx="33.793487162658465" cy="74.19898879353775" fill="black" r="0.25" /><circle cx="37.377345620767635" cy="75.52114398193902" fill="black" r="0.25" /><circle cx="40.55353078536549" cy="77.6434030589995" fill="black" r="0.25" /><circle cx="43.14652615859289" cy="80.44848965024731" fill="black" r="0.25" /><circle cx="44.320132753924945" cy="84.06840679834112" fill="black" r="1.0" /><circle cx="46.049935534670986" cy="87.45793994309625" fill="black" r="0.25" /><circle cx="46.199906673163326" cy="91.27496030557748" fill="black" r="0.25" /><circle cx="45.45466838979625" cy="95.02152615859289" fill="black" r="0.25" /><circle cx="43.855402670753996" cy="98.49060167663417" fill="black" r="0.25" /><circle cx="40.96015510839149" cy="100.96015510839149" fill="black" r="1.0" /><circle cx="30.0" cy="90.0" fill="white" opacity="0.5" r="10.0" stroke="black" stroke-width="1" /><line opacity="0.5" stroke="black" stroke-width="2" x1="30.0" x2="30.0" y1="90.0" y2="82.0" /><text fill="black" font-family="sans-serif" font-size="4.2333333333333325" font-weight="normal" text-anchor="middle" x="30.0" y="116.46333333333334">DOTS (IN)</text><circle cx="80.0" cy="90.0" fill="none" r="3.0" stroke="gray" stroke-opacity="0.5" stroke-width="0.5" /><line stroke="gray" stroke-opacity="0.5" stroke-width="0.5" x1="74.0" x2="86.0" y1="90.0" y2="90.0" /><line stroke="gray" stroke-opacity="0.5" stroke-width="0.5" x1="80.0" x2="80.0" y1="84.0" y2="96.0" /><line stroke="black" stroke-width="1.5" x1="72.5" x2="70.0" y1="102.99038105676658" y2="107.32050807568878" /><line stroke="black" stroke-width="1" x1="65.92708718850287" x2="63.762023679041775" y1="98.125" y2="99.375" /><line stroke="black" stroke-width="1" x1="63.75" x2="61.25" y1="90.0" y2="90.0" /><line stroke="black" stroke-width="1" x1="65.92708718850287" x2="63.762023679041775" y1="81.875" y2="80.625" /><line stroke="black" stroke-width="1" x1="71.875" x2="70.62499999999999" y1="75.92708718850288" y2="73.76202367904179" /><line stroke="black" stroke-width="1.5" x1="80.0" x2="80.0" y1="75.0" y2="70.0" /><line stroke="black" stroke-width="1" x1="88.125" x2="89.375" y1="75.92708718850287" y2="73.76202367904177" /><line stroke="black" stroke-width="1" x1="94.07291281149712" x2="96.23797632095821" y1="81.875" y2="80.62499999999999" /><line stroke="black" stroke-width="1" x1="96.25" x2="98.75" y1="90.0" y2="90.0" /><line stroke="black" stroke-width="1" x1="94.07291281149713" x2="96.23797632095823" y1="98.125" y2="99.375" /><line stroke="black" stroke-width="1.5" x1="87.5" x2="90.0" y1="102.99038105676658" y2="107.32050807568878" /><circle cx="80.0" cy="90.0" fill="white" opacity="0.5" r="12.5" stroke="black" stroke-width="1" /><line opacity="0.5" stroke="black" stroke-width="2" x1="80.0" x2="80.0" y1="90.0" y2="79.5" /><text fill="black" font-family="sans-serif" font-size="4.2333333333333325" font-weight="normal" text-anchor="middle" x="80.0" y="119.46333333333334">LARGE (INLINE)</text><circle cx="130.0" cy="90.0" fill="none" r="3.0" stroke="gray" stroke-opacity="0.5" stroke-width="0.5" /><line stroke="gray" stroke-opacity="0.5" stroke-width="0.5" x1="124.0" x2="136.0" y1="90.0" y2="90.0" /><line stroke="gray" stroke-opacity="0.5" stroke-width="0.5" x1="130.0" x2="130.0" y1="84.0" y2="96.0" /><line stroke="black" stroke-width="1.5" x1="120.45405845398162" x2="119.03984489160851" y1="99.5459415460184" y2="100.96015510839149" /><line stroke="black" stroke-width="1.5" x1="117.16073703001543" x2="115.25862399742512" y1="94.1717294240618" y2="94.78976341281168" /><line stroke="black" stroke-width="1.5" x1="116.66620740196564" x2="114.69083072077537" y1="87.88813472195689" y2="87.57526579187642" /><line stroke="black" stroke-width="1.5" x1="119.0782705759382" x2="117.46023658718832" y1="82.06489909405161" y2="80.88932858946667" /><line stroke="black" stroke-width="1.5" x1="123.87112825351612" x2="122.96314725403703" y1="77.97141192345704" y2="76.1893988750803" /><line stroke="black" stroke-width="1.5" x1="130.0" x2="130.0" y1="76.5" y2="74.5" /><line stroke="black" stroke-width="1.5" x1="136.12887174648387" x2="137.03685274596296" y1="77.97141192345703" y2="76.1893988750803" /><line stroke="black" stroke-width="1.5" x1="140.9217294240618" x2="142.53976341281168" y1="82.06489909405161" y2="80.88932858946666" /><line stroke="black" stroke-width="1.5" x1="143.33379259803436" x2="145.30916927922465" y1="87.88813472195687" y2="87.57526579187642" /><line stroke="black" stroke-width="1.5" x1="142.8392629699846" x2="144.7413760025749" y1="94.17172942406178" y2="94.78976341281168" /><line stroke="black" stroke-width="1.5" x1="139.54594154601838" x2="140.9601551083915" y1="99.54594154601838" y2="100.96015510839149" /><circle cx="130.0" cy="90.0" fill="white" opacity="0.5" r="12.5" stroke="black" stroke-width="1" /><line opacity="0.5" stroke="black" stroke-width="2" x1="130.0" x2="130.0" y1="90.0" y2="79.5" /><text fill="blue" font-family="serif" font-size="4.938888888888888" font-weight="bold" text-anchor="middle" x="130.0" y="118.45722222222223">STYLED</text><circle cx="30.0" cy="150.0" fill="none" r="3.0" stroke="gray" stroke-opacity="0.5" stroke-width="0.5" /><line stroke="gray" stroke-opacity="0.5" stroke-width="0.5" x1="24.0" x2="36.0" y1="150.0" y2="150.0" /><line stroke="gray" stroke-opacity="0.5" stroke-width="0.5" x1="30.0" x2="30.0" y1="144.0" y2="156.0" /><circle cx="30.0" cy="150.0" fill="none" r="15.0" stroke="black" stroke-width="0.5" /><circle cx="19.393398282201787" cy="160.6066017177982" fill="black" r="2.0" /><circle cx="15.734152255572697" cy="154.63525491562422" fill="black" r="0.5" /><circle cx="15.184674891072934" cy="147.65348302439654" fill="black" r="2.0" /><circle cx="17.864745084375787" cy="141.18322121561292" fill="black" r="0.5" /><circle cx="23.190142503906795" cy="136.6349021371745" fill="black" r="2.0" /><circle cx="29.999999999999996" cy="135.0" fill="black" r="0.5" /><circle cx="36.8098574960932" cy="136.6349021371745" fill="black" r="2.0" /><circle cx="42.13525491562421" cy="141.1832212156129" fill="black" r="0.5" /><circle cx="44.81532510892706" cy="147.65348302439654" fill="black" r="2.0" /><circle cx="44.265847744427305" cy="154.63525491562422" fill="black" r="0.5" /><circle cx="40.60660171779821" cy="160.6066017177982" fill="black" r="2.0" /><circle cx="30.0" cy="150.0" fill="white" opacity="0.5" r="10.0" stroke="black" stroke-width="1" /><line opacity="0.5" stroke="black" stroke-width="2" x1="30.0" x2="30.0" y1="150.0" y2="142.0" /><text fill="black" font-family="sans-serif" font-size="4.2333333333333325" font-weight="normal" text-anchor="middle" x="30.0" y="175.96333333333334">DOTS (INLINE)</text></svg>