<?xml version="1.0" encoding="utf-8" ?>
<svg baseProfile="full" height="70.0mm" version="1.1" viewBox="0 0 480.0 70.0" width="480.0mm" xmlns="http://www.w3.org/2000/svg" xmlns:ev="http://www.w3.org/2001/xml-events" xmlns:xlink="http://www.w3.org/1999/xlink"><defs /><rect fill="#dddddd" height="70.0" width="480.0" x="0" y="0" /><circle cx="30.0" cy="35.0" fill="none" r="2.0" stroke="gray" stroke-opacity="0.5" stroke-width="0.5" /><line stroke="gray" stroke-opacity="0.5" stroke-width="0.5" x1="25.0" x2="35.0" y1="35.0" y2="35.0" /><line stroke="gray" stroke-opacity="0.5" stroke-width="0.5" x1="30.0" x2="30.0" y1="30.0" y2="40.0" /><circle cx="30.0" cy="35.0" fill="#eeeeee" opacity="0.5" r="2.0" stroke="black" stroke-width="1" /><line opacity="0.5" stroke="black" stroke-width="1" x1="28.6" x2="31.4" y1="33.6" y2="36.4" /><line opacity="0.5" stroke="black" stroke-width="1" x1="31.4" x2="28.6" y1="33.6" y2="36.4" /><rect fill="none" height="12.0" stroke="gray" stroke-opacity="0.5" stroke-width="0.5" width="6.0" x="52.0" y="29.0" /><line stroke="gray" stroke-opacity="0.5" stroke-width="0.5" x1="49.0" x2="61.0" y1="35.0" y2="35.0" /><line stroke="gray" stroke-opacity="0.5" stroke-width="0.5" x1="55.0" x2="55.0" y1="26.0" y2="44.0" /><rect fill="#cccccc" height="20.0" opacity="0.5" stroke="black" width="10.0" x="50.0" y="25.0" /><circle cx="55.0" cy="35.0" fill="black" opacity="0.5" r="3.0" /><text fill="black" font-family="sans-serif" font-size="4.2333333333333325" font-weight="normal" text-anchor="middle" x="55.0" y="20.0">POWER</text><rect fill="none" height="12.0" stroke="gray" stroke-opacity="0.5" stroke-width="0.5" width="6.0" x="77.0" y="29.0" /><line stroke="gray" stroke-opacity="0.5" stroke-width="0.5" x1="74.0" x2="86.0" y1="35.0" y2="35.0" /><line stroke="gray" stroke-opacity="0.5" stroke-width="0.5" x1="80.0" x2="80.0" y1="26.0" y2="44.0" /><rect fill="#cccccc" height="20.0" opacity="0.5" stroke="black" width="10.0" x="75.0" y="25.0" /><circle cx="80.0" cy="35.0" fill="black" opacity="0.5" r="3.0" /><text fill="black" font-family="sans-serif" font-size="4.2333333333333325" font-weight="normal" text-anchor="middle" x="80.0" y="20.0">STANDBY</text><text fill="black" font-family="sans-serif" font-size="4.2333333333333325" font-weight="normal" text-anchor="middle" x="235.0" y="56.48166666666667">CHANNEL 2</text><line stroke="#555555" stroke-width="2.0" x1="175.0" x2="221.57" y1="55.0" y2="55.0" /><line stroke="#555555" stroke-width="2.0" x1="248.43" x2="295.0" y1="55.0" y2="55.0" /><circle cx="175.0" cy="35.0" fill="none" r="3.0" stroke="gray" stroke-opacity="0.5" stroke-width="0.5" /><line stroke="gray" stroke-opacity="0.5" stroke-width="0.5" x1="169.0" x2="181.0" y1="35.0" y2="35.0" /><line stroke="gray" stroke-opacity="0.5" stroke-width="0.5" x1="175.0" x2="175.0" y1="29.0" y2="41.0" /><line stroke="black" stroke-width="1.5" x1="166.51471862576142" x2="165.10050506338834" y1="43.48528137423857" y2="44.89949493661167" /><line stroke="black" stroke-width="1" x1="163.1117935463106" x2="162.16073703001544" y1="38.862712429686844" y2="39.171729424061795" /><line stroke="black" stroke-width="1.5" x1="163.14773991285836" x2="161.17236323166807" y1="33.12278641951723" y2="32.80991748943677" /><line stroke="black" stroke-width="1" x1="164.88728757031316" x2="164.0782705759382" y1="27.65268434634409" y2="27.064899094051615" /><line stroke="black" stroke-width="1.5" x1="169.55211400312544" x2="168.64413300364635" y1="24.30792170973959" y2="22.525908661362852" /><line stroke="black" stroke-width="1" x1="175.0" x2="175.0" y1="22.5" y2="21.5" /><line stroke="black" stroke-width="1.5" x1="180.44788599687456" x2="181.35586699635365" y1="24.307921709739585" y2="22.52590866136285" /><line stroke="black" stroke-width="1" x1="185.11271242968684" x2="185.9217294240618" y1="27.65268434634408" y2="27.06489909405161" /><line stroke="black" stroke-width="1.5" x1="186.85226008714164" x2="188.82763676833193" y1="33.122786419517226" y2="32.809917489436764" /><line stroke="black" stroke-width="1" x1="186.8882064536894" x2="187.8392629699846" y1="38.86271242968684" y2="39.17172942406179" /><line stroke="black" stroke-width="1.5" x1="183.48528137423858" x2="184.89949493661166" y1="43.48528137423857" y2="44.89949493661166" /><circle cx="175.0" cy="35.0" fill="white" opacity="0.5" r="10.0" stroke="black" stroke-width="1" /><line opacity="0.5" stroke="black" stroke-width="2" x1="175.0" x2="175.0" y1="35.0" y2="27.0" /><text fill="black" font-family="sans-serif" font-size="4.2333333333333325" font-weight="normal" text-anchor="middle" x="175.0" y="16.0">BASS</text><circle cx="205.0" cy="35.0" fill="none" r="3.0" stroke="gray" stroke-opacity="0.5" stroke-width="0.5" /><line stroke="gray" stroke-opacity="0.5" stroke-width="0.5" x1="199.0" x2="211.0" y1="35.0" y2="35.0" /><line stroke="gray" stroke-opacity="0.5" stroke-width="0.5" x1="205.0" x2="205.0" y1="29.0" y2="41.0" /><line stroke="black" stroke-width="1.5" x1="196.51471862576142" x2="195.10050506338834" y1="43.48528137423857" y2="44.89949493661167" /><line stroke="black" stroke-width="1" x1="193.1117935463106" x2="192.16073703001544" y1="38.862712429686844" y2="39.171729424061795" /><line stroke="black" stroke-width="1.5" x1="193.14773991285836" x2="191.17236323166807" y1="33.12278641951723" y2="32.80991748943677" /><line stroke="black" stroke-width="1" x1="194.88728757031316" x2="194.0782705759382" y1="27.65268434634409" y2="27.064899094051615" /><line stroke="black" stroke-width="1.5" x1="199.55211400312544" x2="198.64413300364635" y1="24.30792170973959" y2="22.525908661362852" /><line stroke="black" stroke-width="1" x1="205.0" x2="205.0" y1="22.5" y2="21.5" /><line stroke="black" stroke-width="1.5" x1="210.44788599687456" x2="211.35586699635365" y1="24.307921709739585" y2="22.52590866136285" /><line stroke="black" stroke-width="1" x1="215.11271242968684" x2="215.9217294240618" y1="27.65268434634408" y2="27.06489909405161" /><line stroke="black" stroke-width="1.5" x1="216.85226008714164" x2="218.82763676833193" y1="33.122786419517226" y2="32.809917489436764" /><line stroke="black" stroke-width="1" x1="216.8882064536894" x2="217.8392629699846" y1="38.86271242968684" y2="39.17172942406179" /><line stroke="black" stroke-width="1.5" x1="213.48528137423858" x2="214.89949493661166" y1="43.48528137423857" y2="44.89949493661166" /><circle cx="205.0" cy="35.0" fill="white" opacity="0.5" r="10.0" stroke="black" stroke-width="1" /><line opacity="0.5" stroke="black" stroke-width="2" x1="205.0" x2="205.0" y1="35.0" y2="27.0" /><text fill="black" font-family="sans-serif" font-size="4.2333333333333325" font-weight="normal" text-anchor="middle" x="205.0" y="16.0">MIDDLE</text><circle cx="235.0" cy="35.0" fill="none" r="3.0" stroke="gray" stroke-opacity="0.5" stroke-width="0.5" /><line stroke="gray" stroke-opacity="0.5" stroke-width="0.5" x1="229.0" x2="241.0" y1="35.0" y2="35.0" /><line stroke="gray" stroke-opacity="0.5" stroke-width="0.5" x1="235.0" x2="235.0" y1="29.0" y2="41.0" /><line stroke="black" stroke-width="1.5" x1="226.51471862576142" x2="225.10050506338834" y1="43.48528137423857" y2="44.89949493661167" /><line stroke="black" stroke-width="1" x1="223.1117935463106" x2="222.16073703001544" y1="38.862712429686844" y2="39.171729424061795" /><line stroke="black" stroke-width="1.5" x1="223.14773991285836" x2="221.17236323166807" y1="33.12278641951723" y2="32.80991748943677" /><line stroke="black" stroke-width="1" x1="224.88728757031316" x2="224.0782705759382" y1="27.65268434634409" y2="27.064899094051615" /><line stroke="black" stroke-width="1.5" x1="229.55211400312544" x2="228.64413300364635" y1="24.30792170973959" y2="22.525908661362852" /><line stroke="black" stroke-width="1" x1="235.0" x2="235.0" y1="22.5" y2="21.5" /><line stroke="black" stroke-width="1.5" x1="240.44788599687456" x2="241.35586699635365" y1="24.307921709739585" y2="22.52590866136285" /><line stroke="black" stroke-width="1" x1="245.11271242968684" x2="245.9217294240618" y1="27.65268434634408" y2="27.06489909405161" /><line stroke="black" stroke-width="1.5" x1="246.85226008714164" x2="248.82763676833193" y1="33.122786419517226" y2="32.809917489436764" /><line stroke="black" stroke-width="1" x1="246.8882064536894" x2="247.8392629699846" y1="38.86271242968684" y2="39.17172942406179" /><line stroke="black" stroke-width="1.5" x1="243.48528137423858" x2="244.89949493661166" y1="43.48528137423857" y2="44.89949493661166" /><circle cx="235.0" cy="35.0" fill="white" opacity="0.5" r="10.0" stroke="black" stroke-width="1" /><line opacity="0.5" stroke="black" stroke-width="2" x1="235.0" x2="235.0" y1="35.0" y2="27.0" /><text fill="black" font-family="sans-serif" font-size="4.2333333333333325" font-weight="normal" text-anchor="middle" x="235.0" y="16.0">TREBLE</text><circle cx="265.0" cy="35.0" fill="none" r="3.0" stroke="gray" stroke-opacity="0.5" stroke-width="0.5" /><line stroke="gray" stroke-opacity="0.5" stroke-width="0.5" x1="259.0" x2="271.0" y1="35.0" y2="35.0" /><line stroke="gray" stroke-opacity="0.5" stroke-width="0.5" x1="265.0" x2="265.0" y1="29.0" y2="41.0" /><line stroke="black" stroke-width="1.5" x1="256.5147186257614" x2="255.10050506338834" y1="43.48528137423857" y2="44.89949493661167" /><line stroke="black" stroke-width="1" x1="253.1117935463106" x2="252.16073703001544" y1="38.862712429686844" y2="39.171729424061795" /><line stroke="black" stroke-width="1.5" x1="253.14773991285836" x2="251.17236323166807" y1="33.12278641951723" y2="32.80991748943677" /><line stroke="black" stroke-width="1" x1="254.88728757031316" x2="254.0782705759382" y1="27.65268434634409" y2="27.064899094051615" /><line stroke="black" stroke-width="1.5" x1="259.55211400312544" x2="258.64413300364635" y1="24.30792170973959" y2="22.525908661362852" /><line stroke="black" stroke-width="1" x1="265.0" x2="265.0" y1="22.5" y2="21.5" /><line stroke="black" stroke-width="1.5" x1="270.44788599687456" x2="271.35586699635365" y1="24.307921709739585" y2="22.52590866136285" /><line stroke="black" stroke-width="1" x1="275.11271242968684" x2="275.92172942406177" y1="27.65268434634408" y2="27.06489909405161" /><line stroke="black" stroke-width="1.5" x1="276.85226008714164" x2="278.8276367683319" y1="33.122786419517226" y2="32.809917489436764" /><line stroke="black" stroke-width="1" x1="276.8882064536894" x2="277.8392629699846" y1="38.86271242968684" y2="39.17172942406179" /><line stroke="black" stroke-width="1.5" x1="273.4852813742386" x2="274.8994949366117" y1="43.48528137423857" y2="44.89949493661166" /><circle cx="265.0" cy="35.0" fill="white" opacity="0.5" r="10.0" stroke="black" stroke-width="1" /><line opacity="0.5" stroke="black" stroke-width="2" x1="265.0" x2="265.0" y1="35.0" y2="27.0" /><text fill="black" font-family="sans-serif" font-size="4.2333333333333325" font-weight="normal" text-anchor="middle" x="265.0" y="16.0">VOLUME</text><circle cx="295.0" cy="35.0" fill="none" r="3.0" stroke="gray" stroke-opacity="0.5" stroke-width="0.5" /><line stroke="gray" stroke-opacity="0.5" stroke-width="0.5" x1="289.0" x2="301.0" y1="35.0" y2="35.0" /><line stroke="gray" stroke-opacity="0.5" stroke-width="0.5" x1="295.0" x2="295.0" y1="29.0" y2="41.0" /><line stroke="black" stroke-width="1.5" x1="286.5147186257614" x2="285.1005050633883" y1="43.48528137423857" y2="44.89949493661167" /><line stroke="black" stroke-width="1" x1="283.1117935463106" x2="282.1607370300154" y1="38.862712429686844" y2="39.171729424061795" /><line stroke="black" stroke-width="1.5" x1="283.14773991285836" x2="281.1723632316681" y1="33.12278641951723" y2="32.80991748943677" /><line stroke="black" stroke-width="1" x1="284.88728757031316" x2="284.07827057593823" y1="27.65268434634409" y2="27.064899094051615" /><line stroke="black" stroke-width="1.5" x1="289.55211400312544" x2="288.64413300364635" y1="24.30792170973959" y2="22.525908661362852" /><line stroke="black" stroke-width="1" x1="295.0" x2="295.0" y1="22.5" y2="21.5" /><line stroke="black" stroke-width="1.5" x1="300.44788599687456" x2="301.35586699635365" y1="24.307921709739585" y2="22.52590866136285" /><line stroke="black" stroke-width="1" x1="305.11271242968684" x2="305.92172942406177" y1="27.65268434634408" y2="27.06489909405161" /><line stroke="black" stroke-width="1.5" x1="306.85226008714164" x2="308.8276367683319" y1="33.122786419517226" y2="32.809917489436764" /><line stroke="black" stroke-width="1" x1="306.8882064536894" x2="307.8392629699846" y1="38.86271242968684" y2="39.17172942406179" /><line stroke="black" stroke-width="1.5" x1="303.4852813742386" x2="304.8994949366117" y1="43.48528137423857" y2="44.89949493661166" /><circle cx="295.0" cy="35.0" fill="white" opacity="0.5" r="10.0" stroke="black" stroke-width="1" /><line opacity="0.5" stroke="black" stroke-width="2" x1="295.0" x2="295.0" y1="35.0" y2="27.0" /><text fill="black" font-family="sans-serif" font-size="4.2333333333333325" font-weight="normal" text-anchor="middle" x="295.0" y="16.0">GAIN</text><text fill="black" font-family="sans-serif" font-size="4.2333333333333325" font-weight="normal" text-anchor="middle" x="355.0" y="56.48166666666667">CHANNEL 1</text><line stroke="#555555" stroke-width="2.0" x1="325.0" x2="341.57" y1="55.0" y2="55.0" /><line stroke="#555555" stroke-width="2.0" x1="368.43" x2="385.0" y1="55.0" y2="55.0" /><circle cx="325.0" cy="35.0" fill="none" r="2.5" stroke="gray" stroke-opacity="0.5" stroke-width="0.5" /><line stroke="gray" stroke-opacity="0.5" stroke-width="0.5" x1="319.5" x2="330.5" y1="35.0" y2="35.0" /><line stroke="gray" stroke-opacity="0.5" stroke-width="0.5" x1="325.0" x2="325.0" y1="29.5" y2="40.5" /><text fill="black" font-family="sans-serif" font-size="4.2333333333333325" font-weight="normal" text-anchor="middle" x="325.0" y="25.0">ON</text><text fill="black" font-family="sans-serif" font-size="4.2333333333333325" font-weight="normal" text-anchor="middle" x="325.0" y="47.96333333333333">OFF</text><rect fill="#cccccc" height="20.0" opacity="0.5" stroke="black" width="10.0" x="320.0" y="25.0" /><circle cx="325.0" cy="35.0" fill="black" opacity="0.5" r="3.0" /><text fill="black" font-family="sans-serif" font-size="4.2333333333333325" font-weight="normal" text-anchor="middle" x="325.0" y="16.0">CASCADE</text><circle cx="355.0" cy="35.0" fill="none" r="3.0" stroke="gray" stroke-opacity="0.5" stroke-width="0.5" /><line stroke="gray" stroke-opacity="0.5" stroke-width="0.5" x1="349.0" x2="361.0" y1="35.0" y2="35.0" /><line stroke="gray" stroke-opacity="0.5" stroke-width="0.5" x1="355.0" x2="355.0" y1="29.0" y2="41.0" /><line stroke="black" stroke-width="1.5" x1="346.5147186257614" x2="345.1005050633883" y1="43.48528137423857" y2="44.89949493661167" /><line stroke="black" stroke-width="1" x1="343.1117935463106" x2="342.1607370300154" y1="38.862712429686844" y2="39.171729424061795" /><line stroke="black" stroke-width="1.5" x1="343.14773991285836" x2="341.1723632316681" y1="33.12278641951723" y2="32.80991748943677" /><line stroke="black" stroke-width="1" x1="344.88728757031316" x2="344.07827057593823" y1="27.65268434634409" y2="27.064899094051615" /><line stroke="black" stroke-width="1.5" x1="349.55211400312544" x2="348.64413300364635" y1="24.30792170973959" y2="22.525908661362852" /><line stroke="black" stroke-width="1" x1="355.0" x2="355.0" y1="22.5" y2="21.5" /><line stroke="black" stroke-width="1.5" x1="360.44788599687456" x2="361.35586699635365" y1="24.307921709739585" y2="22.52590866136285" /><line stroke="black" stroke-width="1" x1="365.11271242968684" x2="365.92172942406177" y1="27.65268434634408" y2="27.06489909405161" /><line stroke="black" stroke-width="1.5" x1="366.85226008714164" x2="368.8276367683319" y1="33.122786419517226" y2="32.809917489436764" /><line stroke="black" stroke-width="1" x1="366.8882064536894" x2="367.8392629699846" y1="38.86271242968684" y2="39.17172942406179" /><line stroke="black" stroke-width="1.5" x1="363.4852813742386" x2="364.8994949366117" y1="43.48528137423857" y2="44.89949493661166" /><circle cx="355.0" cy="35.0" fill="white" opacity="0.5" r="10.0" stroke="black" stroke-width="1" /><line opacity="0.5" stroke="black" stroke-width="2" x1="355.0" x2="355.0" y1="35.0" y2="27.0" /><text fill="black" font-family="sans-serif" font-size="4.2333333333333325" font-weight="normal" text-anchor="middle" x="355.0" y="16.0">TONE</text><circle cx="385.0" cy="35.0" fill="none" r="3.0" stroke="gray" stroke-opacity="0.5" stroke-width="0.5" /><line stroke="gray" stroke-opacity="0.5" stroke-width="0.5" x1="379.0" x2="391.0" y1="35.0" y2="35.0" /><line stroke="gray" stroke-opacity="0.5" stroke-width="0.5" x1="385.0" x2="385.0" y1="29.0" y2="41.0" /><line stroke="black" stroke-width="1.5" x1="376.5147186257614" x2="375.1005050633883" y1="43.48528137423857" y2="44.89949493661167" /><line stroke="black" stroke-width="1" x1="373.1117935463106" x2="372.1607370300154" y1="38.862712429686844" y2="39.171729424061795" /><line stroke="black" stroke-width="1.5" x1="373.14773991285836" x2="371.1723632316681" y1="33.12278641951723" y2="32.80991748943677" /><line stroke="black" stroke-width="1" x1="374.88728757031316" x2="374.07827057593823" y1="27.65268434634409" y2="27.064899094051615" /><line stroke="black" stroke-width="1.5" x1="379.55211400312544" x2="378.64413300364635" y1="24.30792170973959" y2="22.525908661362852" /><line stroke="black" stroke-width="1" x1="385.0" x2="385.0" y1="22.5" y2="21.5" /><line stroke="black" stroke-width="1.5" x1="390.44788599687456" x2="391.35586699635365" y1="24.307921709739585" y2="22.52590866136285" /><line stroke="black" stroke-width="1" x1="395.11271242968684" x2="395.92172942406177" y1="27.65268434634408" y2="27.06489909405161" /><line stroke="black" stroke-width="1.5" x1="396.85226008714164" x2="398.8276367683319" y1="33.122786419517226" y2="32.809917489436764" /><line stroke="black" stroke-width="1" x1="396.8882064536894" x2="397.8392629699846" y1="38.86271242968684" y2="39.17172942406179" /><line stroke="black" stroke-width="1.5" x1="393.4852813742386" x2="394.8994949366117" y1="43.48528137423857" y2="44.89949493661166" /><circle cx="385.0" cy="35.0" fill="white" opacity="0.5" r="10.0" stroke="black" stroke-width="1" /><line opacity="0.5" stroke="black" stroke-width="2" x1="385.0" x2="385.0" y1="35.0" y2="27.0" /><text fill="black" font-family="sans-serif" font-size="4.2333333333333325" font-weight="normal" text-anchor="middle" x="385.0" y="16.0">GAIN</text><text fill="black" font-family="sans-serif" font-size="4.2333333333333325" font-weight="normal" text-anchor="middle" x="440.5" y="36.48166666666667">INPUTS</text><circle cx="428.0" cy="22.0" fill="none" r="3.0" stroke="gray" stroke-opacity="0.5" stroke-width="0.5" /><line stroke="gray" stroke-opacity="0.5" stroke-width="0.5" x1="422.0" x2="434.0" y1="22.0" y2="22.0" /><line stroke="gray" stroke-opacity="0.5" stroke-width="0.5" x1="428.0" x2="428.0" y1="16.0" y2="28.0" /><circle cx="428.0" cy="22.0" fill="#333333" opacity="0.5" r="6.0" stroke="black" stroke-width="1" /><circle cx="428.0" cy="22.0" fill="black" opacity="0.5" r="3.0" /><text fill="black" font-family="sans-serif" font-size="4.2333333333333325" font-weight="normal" text-anchor="end" x="417.0" y="23.481666666666666">2</text><circle cx="428.0" cy="47.0" fill="none" r="3.0" stroke="gray" stroke-opacity="0.5" stroke-width="0.5" /><line stroke="gray" stroke-opacity="0.5" stroke-width="0.5" x1="422.0" x2="434.0" y1="47.0" y2="47.0" /><line stroke="gray" stroke-opacity="0.5" stroke-width="0.5" x1="428.0" x2="428.0" y1="41.0" y2="53.0" /><circle cx="428.0" cy="47.0" fill="#333333" opacity="0.5" r="6.0" stroke="black" stroke-width="1" /><circle cx="428.0" cy="47.0" fill="black" opacity="0.5" r="3.0" /><text fill="black" font-family="sans-serif" font-size="4.2333333333333325" font-weight="normal" text-anchor="end" x="417.0" y="48.48166666666667">2</text><circle cx="453.0" cy="22.0" fill="none" r="3.0" stroke="gray" stroke-opacity="0.5" stroke-width="0.5" /><line stroke="gray" stroke-opacity="0.5" stroke-width="0.5" x1="447.0" x2="459.0" y1="22.0" y2="22.0" /><line stroke="gray" stroke-opacity="0.5" stroke-width="0.5" x1="453.0" x2="453.0" y1="16.0" y2="28.0" /><circle cx="453.0" cy="22.0" fill="#333333" opacity="0.5" r="6.0" stroke="black" stroke-width="1" /><circle cx="453.0" cy="22.0" fill="black" opacity="0.5" r="3.0" /><text fill="black" font-family="sans-serif" font-size="4.2333333333333325" font-weight="normal" text-anchor="start" x="464.0" y="23.481666666666666">1</text><circle cx="453.0" cy="47.0" fill="none" r="3.0" stroke="gray" stroke-opacity="0.5" stroke-width="0.5" /><line stroke="gray" stroke-opacity="0.5" stroke-width="0.5" x1="447.0" x2="459.0" y1="47.0" y2="47.0" /><line stroke="gray" stroke-opacity="0.5" stroke-width="0.5" x1="453.0" x2="453.0" y1="41.0" y2="53.0" /><circle cx="453.0" cy="47.0" fill="#333333" opacity="0.5" r="6.0" stroke="black" stroke-width="1" /><circle cx="453.0" cy="47.0" fill="black" opacity="0.5" r="3.0" /><text fill="black" font-family="sans-serif" font-size="4.2333333333333325" font-weight="normal" text-anchor="start" x="464.0" y="48.48166666666667">1</text></svg>