<?xml version="1.0" encoding="utf-8" ?>
<svg baseProfile="full" height="70.0mm" version="1.1" viewBox="0 0 480.0 70.0" width="480.0mm" xmlns="http://www.w3.org/2000/svg" xmlns:ev="http://www.w3.org/2001/xml-events" xmlns:xlink="http://www.w3.org/1999/xlink"><defs /><rect fill="#dddddd" height="70.0" width="480.0" x="0" y="0" /><circle cx="30.0" cy="35.0" fill="none" r="2.0" stroke="gray" stroke-opacity="0.5" stroke-width="0.5" /><line stroke="gray" stroke-opacity="0.5" stroke-width="0.5" x1="25.0" x2="35.0" y1="35.0" y2="35.0" /><line stroke="gray" stroke-opacity="0.5" stroke-width="0.5" x1="30.0" x2="30.0" y1="30.0" y2="40.0" /><rect fill="none" height="12.0" stroke="gray" stroke-opacity="0.5" stroke-width="0.5" width="6.0" x="52.0" y="29.0" /><line stroke="gray" stroke-opacity="0.5" stroke-width="0.5" x1="49.0" x2="61.0" y1="35.0" y2="35.0" /><line stroke="gray" stroke-opacity="0.5" stroke-width="0.5" x1="55.0" x2="55.0" y1="26.0" y2="44.0" /><text fill="black" font-family="sans-serif" font-size="4.2333333333333325" font-weight="normal" text-anchor="middle" x="55.0" y="20.0">POWER</text><rect fill="none" height="12.0" stroke="gray" stroke-opacity="0.5" stroke-width="0.5" width="6.0" x="77.0" y="29.0" /><line stroke="gray" stroke-opacity="0.5" stroke-width="0.5" x1="74.0" x2="86.0" y1="35.0" y2="35.0" /><line stroke="gray" stroke-opacity="0.5" stroke-width="0.5" x1="80.0" x2="80.0" y1="26.0" y2="44.0" /><text fill="black" font-family="sans-serif" font-size="4.2333333333333325" font-weight="normal" text-anchor="middle" x="80.0" y="20.0">STANDBY</text><text fill="black" font-family="sans-serif" font-size="4.2333333333333325" font-weight="bold" text-anchor="middle" x="235.0" y="61.48166666666667">1974x TMB / JCM800</text><line stroke="#555555" stroke-width="2.0" x1="175.0" x2="210.14000000000001" y1="60.0" y2="60.0" /><line stroke="#555555" stroke-width="2.0" x1="259.86" x2="295.0" y1="60.0" y2="60.0" /><circle cx="175.0" cy="35.0" fill="none" r="3.0" stroke="gray" stroke-opacity="0.5" stroke-width="0.5" /><line stroke="gray" stroke-opacity="0.5" stroke-width="0.5" x1="169.0" x2="181.0" y1="35.0" y2="35.0" /><line stroke="gray" stroke-opacity="0.5" stroke-width="0.5" x1="175.0" x2="175.0" y1="29.0" y2="41.0" /><circle cx="175.0" cy="35.0" fill="none" r="5.0" stroke="black" stroke-width="1.0" /><circle cx="166.51471862576142" cy="43.48528137423857" fill="black" r="1.0" /><circle cx="164.30061419167953" cy="38.47644118671816" fill="black" r="0.25" /><circle cx="163.14773991285836" cy="33.12278641951723" fill="black" r="1.0" /><circle cx="165.89855881328185" cy="28.387415911709677" fill="black" r="0.25" /><circle cx="169.55211400312544" cy="24.30792170973959" fill="black" r="1.0" /><circle cx="175.0" cy="23.75" fill="black" r="0.25" /><circle cx="180.44788599687456" cy="24.307921709739585" fill="black" r="1.0" /><circle cx="184.10144118671815" cy="28.387415911709674" fill="black" r="0.25" /><circle cx="186.85226008714164" cy="33.122786419517226" fill="black" r="1.0" /><circle cx="185.69938580832047" cy="38.476441186718155" fill="black" r="0.25" /><circle cx="183.48528137423858" cy="43.48528137423857" fill="black" r="1.0" /><text fill="black" font-family="sans-serif" font-size="4.2333333333333325" font-weight="normal" text-anchor="middle" x="175.0" y="23.0">BASS</text><circle cx="205.0" cy="35.0" fill="none" r="3.0" stroke="gray" stroke-opacity="0.5" stroke-width="0.5" /><line stroke="gray" stroke-opacity="0.5" stroke-width="0.5" x1="199.0" x2="211.0" y1="35.0" y2="35.0" /><line stroke="gray" stroke-opacity="0.5" stroke-width="0.5" x1="205.0" x2="205.0" y1="29.0" y2="41.0" /><circle cx="194.74695167279506" cy="45.25304832720494" fill="black" r="1.0" /><circle cx="191.92297290094163" cy="39.24898367265553" fill="black" r="0.25" /><circle cx="190.6785190613705" cy="32.73170025691665" fill="black" r="1.0" /><circle cx="193.87601632734447" cy="26.917952780978496" fill="black" r="0.25" /><circle cx="198.41713775377656" cy="22.080405399268667" fill="black" r="1.0" /><circle cx="205.0" cy="21.25" fill="black" r="0.25" /><circle cx="211.5828622462234" cy="22.080405399268663" fill="black" r="1.0" /><circle cx="216.12398367265553" cy="26.917952780978492" fill="black" r="0.25" /><circle cx="219.3214809386295" cy="32.731700256916646" fill="black" r="1.0" /><circle cx="218.07702709905837" cy="39.24898367265553" fill="black" r="0.25" /><circle cx="215.25304832720494" cy="45.25304832720494" fill="black" r="1.0" /><text fill="black" font-family="sans-serif" font-size="4.2333333333333325" font-weight="normal" text-anchor="middle" x="205.0" y="16.5">MIDDLE</text><circle cx="235.0" cy="35.0" fill="none" r="3.0" stroke="gray" stroke-opacity="0.5" stroke-width="0.5" /><line stroke="gray" stroke-opacity="0.5" stroke-width="0.5" x1="229.0" x2="241.0" y1="35.0" y2="35.0" /><line stroke="gray" stroke-opacity="0.5" stroke-width="0.5" x1="235.0" x2="235.0" y1="29.0" y2="41.0" /><circle cx="224.74695167279506" cy="45.25304832720494" fill="black" r="1.0" /><circle cx="221.92297290094163" cy="39.24898367265553" fill="black" r="0.25" /><circle cx="220.6785190613705" cy="32.73170025691665" fill="black" r="1.0" /><circle cx="223.87601632734447" cy="26.917952780978496" fill="black" r="0.25" /><circle cx="228.41713775377656" cy="22.080405399268667" fill="black" r="1.0" /><circle cx="235.0" cy="21.25" fill="black" r="0.25" /><circle cx="241.5828622462234" cy="22.080405399268663" fill="black" r="1.0" /><circle cx="246.12398367265553" cy="26.917952780978492" fill="black" r="0.25" /><circle cx="249.3214809386295" cy="32.731700256916646" fill="black" r="1.0" /><circle cx="248.07702709905837" cy="39.24898367265553" fill="black" r="0.25" /><circle cx="245.25304832720494" cy="45.25304832720494" fill="black" r="1.0" /><text fill="black" font-family="sans-serif" font-size="4.2333333333333325" font-weight="normal" text-anchor="middle" x="235.0" y="16.5">TREBLE</text><circle cx="265.0" cy="35.0" fill="none" r="3.0" stroke="gray" stroke-opacity="0.5" stroke-width="0.5" /><line stroke="gray" stroke-opacity="0.5" stroke-width="0.5" x1="259.0" x2="271.0" y1="35.0" y2="35.0" /><line stroke="gray" stroke-opacity="0.5" stroke-width="0.5" x1="265.0" x2="265.0" y1="29.0" y2="41.0" /><circle cx="254.74695167279506" cy="45.25304832720494" fill="black" r="1.0" /><circle cx="251.92297290094163" cy="39.24898367265553" fill="black" r="0.25" /><circle cx="250.6785190613705" cy="32.73170025691665" fill="black" r="1.0" /><circle cx="253.87601632734447" cy="26.917952780978496" fill="black" r="0.25" /><circle cx="258.41713775377656" cy="22.080405399268667" fill="black" r="1.0" /><circle cx="265.0" cy="21.25" fill="black" r="0.25" /><circle cx="271.58286224622344" cy="22.080405399268663" fill="black" r="1.0" /><circle cx="276.1239836726555" cy="26.917952780978492" fill="black" r="0.25" /><circle cx="279.3214809386295" cy="32.731700256916646" fill="black" r="1.0" /><circle cx="278.07702709905834" cy="39.24898367265553" fill="black" r="0.25" /><circle cx="275.25304832720497" cy="45.25304832720494" fill="black" r="1.0" /><text fill="black" font-family="sans-serif" font-size="4.2333333333333325" font-weight="normal" text-anchor="middle" x="265.0" y="16.5">VOLUME</text><circle cx="295.0" cy="35.0" fill="none" r="3.0" stroke="gray" stroke-opacity="0.5" stroke-width="0.5" /><line stroke="gray" stroke-opacity="0.5" stroke-width="0.5" x1="289.0" x2="301.0" y1="35.0" y2="35.0" /><line stroke="gray" stroke-opacity="0.5" stroke-width="0.5" x1="295.0" x2="295.0" y1="29.0" y2="41.0" /><circle cx="284.74695167279503" cy="45.25304832720494" fill="black" r="1.0" /><circle cx="281.92297290094166" cy="39.24898367265553" fill="black" r="0.25" /><circle cx="280.6785190613705" cy="32.73170025691665" fill="black" r="1.0" /><circle cx="283.8760163273445" cy="26.917952780978496" fill="black" r="0.25" /><circle cx="288.41713775377656" cy="22.080405399268667" fill="black" r="1.0" /><circle cx="295.0" cy="21.25" fill="black" r="0.25" /><circle cx="301.58286224622344" cy="22.080405399268663" fill="black" r="1.0" /><circle cx="306.1239836726555" cy="26.917952780978492" fill="black" r="0.25" /><circle cx="309.3214809386295" cy="32.731700256916646" fill="black" r="1.0" /><circle cx="308.07702709905834" cy="39.24898367265553" fill="black" r="0.25" /><circle cx="305.25304832720497" cy="45.25304832720494" fill="black" r="1.0" /><text fill="black" font-family="sans-serif" font-size="4.2333333333333325" font-weight="normal" text-anchor="middle" x="295.0" y="16.5">GAIN</text><circle cx="325.0" cy="35.0" fill="none" r="2.5" stroke="gray" stroke-opacity="0.5" stroke-width="0.5" /><line stroke="gray" stroke-opacity="0.5" stroke-width="0.5" x1="319.5" x2="330.5" y1="35.0" y2="35.0" /><line stroke="gray" stroke-opacity="0.5" stroke-width="0.5" x1="325.0" x2="325.0" y1="29.5" y2="40.5" /><text fill="black" font-family="sans-serif" font-size="4.2333333333333325" font-weight="normal" text-anchor="middle" x="325.0" y="25.0">JCM800</text><text fill="black" font-family="sans-serif" font-size="4.2333333333333325" font-weight="normal" text-anchor="middle" x="325.0" y="25.0">JCM800</text><text fill="black" font-family="sans-serif" font-size="4.2333333333333325" font-weight="normal" text-anchor="middle" x="325.0" y="47.96333333333333">1974x</text><text fill="black" font-family="sans-serif" font-size="4.2333333333333325" font-weight="bold" text-anchor="middle" x="370.0" y="61.48166666666667">1974x</text><line stroke="#555555" stroke-width="2.0" x1="355.0" x2="361.65" y1="60.0" y2="60.0" /><line stroke="#555555" stroke-width="2.0" x1="378.35" x2="385.0" y1="60.0" y2="60.0" /><circle cx="355.0" cy="35.0" fill="none" r="3.0" stroke="gray" stroke-opacity="0.5" stroke-width="0.5" /><line stroke="gray" stroke-opacity="0.5" stroke-width="0.5" x1="349.0" x2="361.0" y1="35.0" y2="35.0" /><line stroke="gray" stroke-opacity="0.5" stroke-width="0.5" x1="355.0" x2="355.0" y1="29.0" y2="41.0" /><circle cx="344.74695167279503" cy="45.25304832720494" fill="black" r="1.0" /><circle cx="341.92297290094166" cy="39.24898367265553" fill="black" r="0.25" /><circle cx="340.6785190613705" cy="32.73170025691665" fill="black" r="1.0" /><circle cx="343.8760163273445" cy="26.917952780978496" fill="black" r="0.25" /><circle cx="348.41713775377656" cy="22.080405399268667" fill="black" r="1.0" /><circle cx="355.0" cy="21.25" fill="black" r="0.25" /><circle cx="361.58286224622344" cy="22.080405399268663" fill="black" r="1.0" /><circle cx="366.1239836726555" cy="26.917952780978492" fill="black" r="0.25" /><circle cx="369.3214809386295" cy="32.731700256916646" fill="black" r="1.0" /><circle cx="368.07702709905834" cy="39.24898367265553" fill="black" r="0.25" /><circle cx="365.25304832720497" cy="45.25304832720494" fill="black" r="1.0" /><text fill="black" font-family="sans-serif" font-size="4.2333333333333325" font-weight="normal" text-anchor="middle" x="355.0" y="16.5">TONE</text><circle cx="385.0" cy="35.0" fill="none" r="3.0" stroke="gray" stroke-opacity="0.5" stroke-width="0.5" /><line stroke="gray" stroke-opacity="0.5" stroke-width="0.5" x1="379.0" x2="391.0" y1="35.0" y2="35.0" /><line stroke="gray" stroke-opacity="0.5" stroke-width="0.5" x1="385.0" x2="385.0" y1="29.0" y2="41.0" /><circle cx="374.74695167279503" cy="45.25304832720494" fill="black" r="1.0" /><circle cx="371.92297290094166" cy="39.24898367265553" fill="black" r="0.25" /><circle cx="370.6785190613705" cy="32.73170025691665" fill="black" r="1.0" /><circle cx="373.8760163273445" cy="26.917952780978496" fill="black" r="0.25" /><circle cx="378.41713775377656" cy="22.080405399268667" fill="black" r="1.0" /><circle cx="385.0" cy="21.25" fill="black" r="0.25" /><circle cx="391.58286224622344" cy="22.080405399268663" fill="black" r="1.0" /><circle cx="396.1239836726555" cy="26.917952780978492" fill="black" r="0.25" /><circle cx="399.3214809386295" cy="32.731700256916646" fill="black" r="1.0" /><circle cx="398.07702709905834" cy="39.24898367265553" fill="black" r="0.25" /><circle cx="395.25304832720497" cy="45.25304832720494" fill="black" r="1.0" /><text fill="black" font-family="sans-serif" font-size="4.2333333333333325" font-weight="normal" text-anchor="middle" x="385.0" y="16.5">GAIN</text><text fill="black" font-family="sans-serif" font-size="4.2333333333333325" font-weight="bold" text-anchor="middle" x="428.0" y="11.481666666666666">1974x TMB</text><circle cx="428.0" cy="22.0" fill="none" r="3.0" stroke="gray" stroke-opacity="0.5" stroke-width="0.5" /><line stroke="gray" stroke-opacity="0.5" stroke-width="0.5" x1="422.0" x2="434.0" y1="22.0" y2="22.0" /><line stroke="gray" stroke-opacity="0.5" stroke-width="0.5" x1="428.0" x2="428.0" y1="16.0" y2="28.0" /><circle cx="428.0" cy="47.0" fill="none" r="3.0" stroke="gray" stroke-opacity="0.5" stroke-width="0.5" /><line stroke="gray" stroke-opacity="0.5" stroke-width="0.5" x1="422.0" x2="434.0" y1="47.0" y2="47.0" /><line stroke="gray" stroke-opacity="0.5" stroke-width="0.5" x1="428.0" x2="428.0" y1="41.0" y2="53.0" /><text fill="black" font-family="sans-serif" font-size="4.2333333333333325" font-weight="bold" text-anchor="middle" x="453.0" y="11.481666666666666">1974x / JCM800</text><circle cx="453.0" cy="22.0" fill="none" r="3.0" stroke="gray" stroke-opacity="0.5" stroke-width="0.5" /><line stroke="gray" stroke-opacity="0.5" stroke-width="0.5" x1="447.0" x2="459.0" y1="22.0" y2="22.0" /><line stroke="gray" stroke-opacity="0.5" stroke-width="0.5" x1="453.0" x2="453.0" y1="16.0" y2="28.0" /><circle cx="453.0" cy="47.0" fill="none" r="3.0" stroke="gray" stroke-opacity="0.5" stroke-width="0.5" /><line stroke="gray" stroke-opacity="0.5" stroke-width="0.5" x1="447.0" x2="459.0" y1="47.0" y2="47.0" /><line stroke="gray" stroke-opacity="0.5" stroke-width="0.5" x1="453.0" x2="453.0" y1="41.0" y2="53.0" /></svg>