<?xml version="1.0" encoding="utf-8" ?>
<svg baseProfile="full" height="100.0mm" version="1.1" viewBox="0 0 150.0 100.0" width="150.0mm" xmlns="http://www.w3.org/2000/svg" xmlns:ev="http://www.w3.org/2001/xml-events" xmlns:xlink="http://www.w3.org/1999/xlink"><defs /><rect fill="#eeeeee" height="100.0" width="150.0" x="0" y="0" /><circle cx="30.0" cy="40.0" fill="none" r="5.0" stroke="gray" stroke-opacity="0.5" stroke-width="0.5" /><line stroke="gray" stroke-opacity="0.5" stroke-width="0.5" x1="22.0" x2="38.0" y1="40.0" y2="40.0" /><line stroke="gray" stroke-opacity="0.5" stroke-width="0.5" x1="30.0" x2="30.0" y1="32.0" y2="48.0" /><circle cx="30.0" cy="40.0" fill="#333333" opacity="0.5" r="10.0" stroke="black" stroke-width="1" /><circle cx="30.0" cy="40.0" fill="black" opacity="0.5" r="5.0" /><text fill="black" font-family="sans-serif" font-size="4.2333333333333325" font-weight="normal" text-anchor="middle" x="30.0" y="57.96333333333333">INPUT 1</text><circle cx="80.0" cy="40.0" fill="none" r="6.0" stroke="gray" stroke-opacity="0.5" stroke-width="0.5" /><line stroke="gray" stroke-opacity="0.5" stroke-width="0.5" x1="71.0" x2="89.0" y1="40.0" y2="40.0" /><line stroke="gray" stroke-opacity="0.5" stroke-width="0.5" x1="80.0" x2="80.0" y1="31.0" y2="49.0" /><circle cx="80.0" cy="40.0" fill="#333333" opacity="0.5" r="12.0" stroke="black" stroke-width="1" /><circle cx="80.0" cy="40.0" fill="black" opacity="0.5" r="6.0" /><text fill="black" font-family="sans-serif" font-size="4.2333333333333325" font-weight="bold" text-anchor="middle" x="80.0" y="23.0">SPEAKER</text><circle cx="120.0" cy="40.0" fill="none" r="5.0" stroke="gray" stroke-opacity="0.5" stroke-width="0.5" /><line stroke="gray" stroke-opacity="0.5" stroke-width="0.5" x1="112.0" x2="128.0" y1="40.0" y2="40.0" /><line stroke="gray" stroke-opacity="0.5" stroke-width="0.5" x1="120.0" x2="120.0" y1="32.0" y2="48.0" /><circle cx="120.0" cy="40.0" fill="#333333" opacity="0.5" r="6.0" stroke="black" stroke-width="1" /><circle cx="120.0" cy="40.0" fill="black" opacity="0.5" r="3.0" /><text fill="#555555" font-family="sans-serif" font-size="2.822222222222222" font-weight="normal" text-anchor="middle" x="120.0" y="51.97555555555556">AUX</text></svg>