<?xml version="1.0" encoding="utf-8" ?>
<svg baseProfile="full" height="200.0mm" version="1.1" viewBox="0 0 200.0 200.0" width="200.0mm" xmlns="http://www.w3.org/2000/svg" xmlns:ev="http://www.w3.org/2001/xml-events" xmlns:xlink="http://www.w3.org/1999/xlink"><defs /><rect fill="#f0f0f0" height="200.0" width="200.0" x="0" y="0" /><circle cx="30.0" cy="40.0" fill="none" r="2.5" stroke="gray" stroke-opacity="0.5" stroke-width="0.5" /><line stroke="gray" stroke-opacity="0.5" stroke-width="0.5" x1="27.5" x2="32.5" y1="40.0" y2="40.0" /><line stroke="gray" stroke-opacity="0.5" stroke-width="0.5" x1="30.0" x2="30.0" y1="37.5" y2="42.5" /><circle cx="30.0" cy="40.0" fill="#cccccc" opacity="0.5" r="3.0" stroke="black" /><circle cx="30.0" cy="40.0" fill="gray" opacity="0.5" r="1.7999999999999998" stroke="black" /><text fill="black" font-family="sans-serif" font-size="4.2333333333333325" font-weight="normal" text-anchor="middle" x="30.0" y="62.96333333333333">BASIC</text><circle cx="80.0" cy="40.0" fill="none" r="2.5" stroke="gray" stroke-opacity="0.5" stroke-width="0.5" /><line stroke="gray" stroke-opacity="0.5" stroke-width="0.5" x1="77.5" x2="82.5" y1="40.0" y2="40.0" /><line stroke="gray" stroke-opacity="0.5" stroke-width="0.5" x1="80.0" x2="80.0" y1="37.5" y2="42.5" /><text fill="black" font-family="sans-serif" font-size="4.2333333333333325" font-weight="normal" text-anchor="middle" x="80.0" y="25.0">ON</text><text fill="black" font-family="sans-serif" font-size="4.2333333333333325" font-weight="normal" text-anchor="middle" x="80.0" y="57.96333333333333">OFF</text><circle cx="80.0" cy="40.0" fill="#cccccc" opacity="0.5" r="3.0" stroke="black" /><circle cx="80.0" cy="40.0" fill="gray" opacity="0.5" r="1.7999999999999998" stroke="black" /><text fill="black" font-family="sans-serif" font-size="4.2333333333333325" font-weight="normal" text-anchor="middle" x="80.0" y="62.96333333333333">POWER</text><rect fill="none" height="20.0" stroke="gray" stroke-opacity="0.5" stroke-width="0.5" width="10.0" x="125.0" y="30.0" /><line stroke="gray" stroke-opacity="0.5" stroke-width="0.5" x1="125.0" x2="135.0" y1="40.0" y2="40.0" /><line stroke="gray" stroke-opacity="0.5" stroke-width="0.5" x1="130.0" x2="130.0" y1="30.0" y2="50.0" /><text fill="red" font-family="sans-serif" font-size="4.2333333333333325" font-weight="normal" text-anchor="middle" x="130.0" y="25.0">HIGH</text><text fill="black" font-family="sans-serif" font-size="4.2333333333333325" font-weight="normal" text-anchor="middle" x="130.0" y="57.96333333333333">LOW</text><text fill="black" font-family="sans-serif" font-size="4.2333333333333325" font-weight="normal" text-anchor="middle" x="143.0" y="41.48166666666667">MID</text><rect fill="#cccccc" height="24.0" opacity="0.5" stroke="black" width="12.0" x="124.0" y="28.0" /><circle cx="130.0" cy="40.0" fill="gray" opacity="0.5" r="3.5999999999999996" stroke="black" /><text fill="black" font-family="sans-serif" font-size="4.2333333333333325" font-weight="normal" text-anchor="middle" x="130.0" y="62.96333333333333">MODE</text><circle cx="30.0" cy="110.0" fill="none" r="2.5" stroke="gray" stroke-opacity="0.5" stroke-width="0.5" /><line stroke="gray" stroke-opacity="0.5" stroke-width="0.5" x1="27.5" x2="32.5" y1="110.0" y2="110.0" /><line stroke="gray" stroke-opacity="0.5" stroke-width="0.5" x1="30.0" x2="30.0" y1="107.5" y2="112.5" /><line stroke="black" stroke-width="1.5" x1="23.989592359914347" x2="22.57537879754125" y1="116.01040764008566" y2="117.42462120245875" /><line stroke="black" stroke-width="1.5" x1="30.0" x2="29.999999999999996" y1="101.5" y2="99.5" /><line stroke="black" stroke-width="1.5" x1="36.01040764008565" x2="37.42462120245875" y1="116.01040764008565" y2="117.42462120245875" /><circle cx="30.0" cy="110.0" fill="white" opacity="0.5" r="7.5" stroke="black" stroke-width="1" /><line opacity="0.5" stroke="black" stroke-width="2" x1="30.0" x2="30.0" y1="110.0" y2="104.5" /><text fill="black" font-family="sans-serif" font-size="4.2333333333333325" font-weight="normal" text-anchor="middle" x="30.0" y="132.46333333333334">SELECT</text><circle cx="90.0" cy="110.0" fill="none" r="2.5" stroke="gray" stroke-opacity="0.5" stroke-width="0.5" /><line stroke="gray" stroke-opacity="0.5" stroke-width="0.5" x1="87.5" x2="92.5" y1="110.0" y2="110.0" /><line stroke="gray" stroke-opacity="0.5" stroke-width="0.5" x1="90.0" x2="90.0" y1="107.5" y2="112.5" /><line stroke="black" stroke-width="1.5" x1="99.5459415460184" x2="102.37436867076458" y1="119.54594154601838" y2="122.37436867076458" /><text fill="black" font-family="sans-serif" font-size="4.2333333333333325" font-weight="normal" text-anchor="middle" x="104.49568901432423" y="125.99568901432423">4</text><line stroke="black" stroke-width="1.5" x1="90.0" x2="90.0" y1="123.5" y2="127.5" /><text fill="black" font-family="sans-serif" font-size="4.2333333333333325" font-weight="normal" text-anchor="middle" x="90.0" y="132.0">8</text><line stroke="black" stroke-width="1.5" x1="80.4540584539816" x2="77.6256313292354" y1="119.54594154601838" y2="122.37436867076457" /><text fill="black" font-family="sans-serif" font-size="4.2333333333333325" font-weight="normal" text-anchor="middle" x="75.50431098567577" y="125.99568901432421">16</text><circle cx="90.0" cy="110.0" fill="white" opacity="0.5" r="12.5" stroke="black" stroke-width="1" /><line opacity="0.5" stroke="black" stroke-width="2" x1="90.0" x2="90.0" y1="110.0" y2="99.5" /><text fill="black" font-family="sans-serif" font-size="4.2333333333333325" font-weight="normal" text-anchor="middle" x="90.0" y="139.46333333333334">IMPEDANCE</text><circle cx="150.0" cy="110.0" fill="none" r="2.5" stroke="gray" stroke-opacity="0.5" stroke-width="0.5" /><line stroke="gray" stroke-opacity="0.5" stroke-width="0.5" x1="147.5" x2="152.5" y1="110.0" y2="110.0" /><line stroke="gray" stroke-opacity="0.5" stroke-width="0.5" x1="150.0" x2="150.0" y1="107.5" y2="112.5" /><circle cx="141.51471862576142" cy="118.48528137423857" fill="black" r="1.0" /><text fill="blue" font-family="sans-serif" font-size="4.2333333333333325" font-weight="bold" text-anchor="middle" x="139.3933982822018" y="122.10660171779821">1</text><circle cx="141.51471862576142" cy="101.51471862576143" fill="black" r="1.0" /><text fill="black" font-family="sans-serif" font-size="4.2333333333333325" font-weight="normal" text-anchor="middle" x="139.3933982822018" y="100.89339828220179">2</text><circle cx="158.48528137423858" cy="101.51471862576143" fill="black" r="1.0" /><text fill="black" font-family="sans-serif" font-size="4.2333333333333325" font-weight="normal" text-anchor="middle" x="160.6066017177982" y="100.89339828220179">3</text><circle cx="158.48528137423858" cy="118.48528137423857" fill="black" r="1.0" /><text fill="red" font-family="sans-serif" font-size="4.2333333333333325" font-weight="normal" text-anchor="middle" x="160.6066017177982" y="122.10660171779821">insane</text><circle cx="150.0" cy="110.0" fill="white" opacity="0.5" r="10.0" stroke="black" stroke-width="1" /><line opacity="0.5" stroke="black" stroke-width="2" x1="150.0" x2="150.0" y1="110.0" y2="102.0" /><text fill="black" font-family="sans-serif" font-size="4.2333333333333325" font-weight="normal" text-anchor="middle" x="150.0" y="134.96333333333334">INPUT</text><rect fill="none" height="25.0" stroke="gray" stroke-opacity="0.5" stroke-width="0.5" width="15.0" x="22.5" y="157.5" /><line stroke="gray" stroke-opacity="0.5" stroke-width="0.5" x1="22.5" x2="37.5" y1="170.0" y2="170.0" /><line stroke="gray" stroke-opacity="0.5" stroke-width="0.5" x1="30.0" x2="30.0" y1="157.5" y2="182.5" /><rect fill="#333333" height="30.0" opacity="0.5" stroke="black" width="18.0" x="21.0" y="155.0" /><rect fill="#444444" height="26.0" opacity="0.5" stroke="none" width="14.0" x="23.0" y="157.0" /><text fill="black" font-family="sans-serif" font-size="4.2333333333333325" font-weight="normal" text-anchor="middle" x="30.0" y="192.96333333333334">ROCKER</text></svg>